solid OpenSCAD_Model
  facet normal -1 0 0
    outer loop
      vertex 0 0 0
      vertex 0 50.14 15
      vertex 0 50.14 0
    endloop
  endfacet
  facet normal -1 -0 0
    outer loop
      vertex 0 50.14 15
      vertex 0 0 0
      vertex 0 0 15
    endloop
  endfacet
  facet normal -0 0 1
    outer loop
      vertex 6.71 42.7346 15
      vertex 7.66 3.76 15
      vertex 7.66 44.38 15
    endloop
  endfacet
  facet normal 0 0 1
    outer loop
      vertex 6.71 42.7346 15
      vertex 6.71 5.40545 15
      vertex 7.66 3.76 15
    endloop
  endfacet
  facet normal -0 0 1
    outer loop
      vertex 4.81 42.7346 15
      vertex 6.71 5.40545 15
      vertex 6.71 42.7346 15
    endloop
  endfacet
  facet normal 0 0 1
    outer loop
      vertex 4.81 42.7346 15
      vertex 4.81 5.40545 15
      vertex 6.71 5.40545 15
    endloop
  endfacet
  facet normal 0 0 1
    outer loop
      vertex 0 0 15
      vertex 4.81 42.7346 15
      vertex 3.86 44.38 15
    endloop
  endfacet
  facet normal 0 0 1
    outer loop
      vertex 4.81 42.7346 15
      vertex 0 0 15
      vertex 4.81 5.40545 15
    endloop
  endfacet
  facet normal -0 0 1
    outer loop
      vertex 127.3 5.40545 15
      vertex 132.11 0 15
      vertex 127.3 42.7346 15
    endloop
  endfacet
  facet normal 0 0 1
    outer loop
      vertex 132.11 0 15
      vertex 127.3 5.40545 15
      vertex 128.25 3.76 15
    endloop
  endfacet
  facet normal -0 0 1
    outer loop
      vertex 125.4 42.7346 15
      vertex 127.3 5.40545 15
      vertex 127.3 42.7346 15
    endloop
  endfacet
  facet normal 0 0 1
    outer loop
      vertex 125.4 42.7346 15
      vertex 125.4 5.40545 15
      vertex 127.3 5.40545 15
    endloop
  endfacet
  facet normal 0 0 1
    outer loop
      vertex 124.45 44.38 15
      vertex 125.4 5.40545 15
      vertex 125.4 42.7346 15
    endloop
  endfacet
  facet normal 0 0 1
    outer loop
      vertex 125.4 5.40545 15
      vertex 124.45 44.38 15
      vertex 124.45 3.76 15
    endloop
  endfacet
  facet normal 0 0 1
    outer loop
      vertex 132.11 50.14 15
      vertex 128.25 44.38 15
      vertex 132.11 0 15
    endloop
  endfacet
  facet normal 0 0 1
    outer loop
      vertex 132.11 50.14 15
      vertex 127.3 46.0254 15
      vertex 128.25 44.38 15
    endloop
  endfacet
  facet normal -0 0 1
    outer loop
      vertex 122.59 48.14 15
      vertex 127.3 46.0254 15
      vertex 132.11 50.14 15
    endloop
  endfacet
  facet normal 0 0 1
    outer loop
      vertex 124.45 44.38 15
      vertex 122.59 48.14 15
      vertex 124.45 3.76 15
    endloop
  endfacet
  facet normal 0 0 1
    outer loop
      vertex 125.4 46.0254 15
      vertex 122.59 48.14 15
      vertex 124.45 44.38 15
    endloop
  endfacet
  facet normal 0 0 1
    outer loop
      vertex 127.3 46.0254 15
      vertex 122.59 48.14 15
      vertex 125.4 46.0254 15
    endloop
  endfacet
  facet normal 0 0 1
    outer loop
      vertex 132.11 50.14 15
      vertex 9.52 48.14 15
      vertex 122.59 48.14 15
    endloop
  endfacet
  facet normal 0 0 1
    outer loop
      vertex 9.52 48.14 15
      vertex 7.66 44.38 15
      vertex 9.52 0 15
    endloop
  endfacet
  facet normal 0 0 1
    outer loop
      vertex 9.52 48.14 15
      vertex 6.71 46.0254 15
      vertex 7.66 44.38 15
    endloop
  endfacet
  facet normal 0 0 1
    outer loop
      vertex 9.52 48.14 15
      vertex 4.81 46.0254 15
      vertex 6.71 46.0254 15
    endloop
  endfacet
  facet normal 0 0 1
    outer loop
      vertex 0 0 15
      vertex 3.86 44.38 15
      vertex 0 50.14 15
    endloop
  endfacet
  facet normal 0 0 1
    outer loop
      vertex 4.81 46.0254 15
      vertex 0 50.14 15
      vertex 3.86 44.38 15
    endloop
  endfacet
  facet normal 0 0 1
    outer loop
      vertex 9.52 48.14 15
      vertex 0 50.14 15
      vertex 4.81 46.0254 15
    endloop
  endfacet
  facet normal -0 0 1
    outer loop
      vertex 0 50.14 15
      vertex 9.52 48.14 15
      vertex 132.11 50.14 15
    endloop
  endfacet
  facet normal -0 0 1
    outer loop
      vertex 127.3 42.7346 15
      vertex 132.11 0 15
      vertex 128.25 44.38 15
    endloop
  endfacet
  facet normal -0 0 1
    outer loop
      vertex 127.3 2.11455 15
      vertex 132.11 0 15
      vertex 128.25 3.76 15
    endloop
  endfacet
  facet normal 0 0 1
    outer loop
      vertex 122.59 0 15
      vertex 127.3 2.11455 15
      vertex 125.4 2.11455 15
    endloop
  endfacet
  facet normal 0 0 1
    outer loop
      vertex 127.3 2.11455 15
      vertex 122.59 0 15
      vertex 132.11 0 15
    endloop
  endfacet
  facet normal 0 0 1
    outer loop
      vertex 124.45 3.76 15
      vertex 122.59 0 15
      vertex 125.4 2.11455 15
    endloop
  endfacet
  facet normal 0 0 1
    outer loop
      vertex 122.59 0 15
      vertex 124.45 3.76 15
      vertex 122.59 48.14 15
    endloop
  endfacet
  facet normal -0 0 1
    outer loop
      vertex 7.66 3.76 15
      vertex 9.52 0 15
      vertex 7.66 44.38 15
    endloop
  endfacet
  facet normal -0 0 1
    outer loop
      vertex 6.71 2.11455 15
      vertex 9.52 0 15
      vertex 7.66 3.76 15
    endloop
  endfacet
  facet normal -0 0 1
    outer loop
      vertex 4.81 2.11455 15
      vertex 9.52 0 15
      vertex 6.71 2.11455 15
    endloop
  endfacet
  facet normal 0 0 1
    outer loop
      vertex 4.81 2.11455 15
      vertex 0 0 15
      vertex 9.52 0 15
    endloop
  endfacet
  facet normal 0 0 1
    outer loop
      vertex 3.86 3.76 15
      vertex 0 0 15
      vertex 4.81 2.11455 15
    endloop
  endfacet
  facet normal 0 0 1
    outer loop
      vertex 4.81 5.40545 15
      vertex 0 0 15
      vertex 3.86 3.76 15
    endloop
  endfacet
  facet normal 1 0 0
    outer loop
      vertex 132.11 50.14 15
      vertex 132.11 34.07 11
      vertex 132.11 50.14 0
    endloop
  endfacet
  facet normal 1 -0 0
    outer loop
      vertex 132.11 0 15
      vertex 132.11 34.07 11
      vertex 132.11 50.14 15
    endloop
  endfacet
  facet normal 1 0 0
    outer loop
      vertex 132.11 0 0
      vertex 132.11 14.07 11
      vertex 132.11 0 15
    endloop
  endfacet
  facet normal 1 0 0
    outer loop
      vertex 132.11 34.07 11
      vertex 132.11 0 15
      vertex 132.11 14.07 11
    endloop
  endfacet
  facet normal 1 -0 0
    outer loop
      vertex 132.11 34.07 2
      vertex 132.11 50.14 0
      vertex 132.11 34.07 11
    endloop
  endfacet
  facet normal 1 0 0
    outer loop
      vertex 132.11 0 0
      vertex 132.11 34.07 2
      vertex 132.11 14.07 2
    endloop
  endfacet
  facet normal 1 0 0
    outer loop
      vertex 132.11 34.07 2
      vertex 132.11 0 0
      vertex 132.11 50.14 0
    endloop
  endfacet
  facet normal 1 0 0
    outer loop
      vertex 132.11 14.07 11
      vertex 132.11 0 0
      vertex 132.11 14.07 2
    endloop
  endfacet
  facet normal 0 1 -0
    outer loop
      vertex 132.11 50.14 0
      vertex 0 50.14 15
      vertex 132.11 50.14 15
    endloop
  endfacet
  facet normal 0 1 0
    outer loop
      vertex 0 50.14 15
      vertex 132.11 50.14 0
      vertex 0 50.14 0
    endloop
  endfacet
  facet normal 0 0 -1
    outer loop
      vertex 6.71 5.40545 0
      vertex 7.66 44.38 0
      vertex 7.66 3.76 0
    endloop
  endfacet
  facet normal 0 0 -1
    outer loop
      vertex 6.71 5.40545 0
      vertex 6.71 42.7346 0
      vertex 7.66 44.38 0
    endloop
  endfacet
  facet normal 0 0 -1
    outer loop
      vertex 4.81 5.40545 0
      vertex 6.71 42.7346 0
      vertex 6.71 5.40545 0
    endloop
  endfacet
  facet normal 0 0 -1
    outer loop
      vertex 4.81 5.40545 0
      vertex 4.81 42.7346 0
      vertex 6.71 42.7346 0
    endloop
  endfacet
  facet normal 0 0 -1
    outer loop
      vertex 0 0 0
      vertex 4.81 5.40545 0
      vertex 3.86 3.76 0
    endloop
  endfacet
  facet normal -0 0 -1
    outer loop
      vertex 4.81 5.40545 0
      vertex 0 0 0
      vertex 4.81 42.7346 0
    endloop
  endfacet
  facet normal 0 0 -1
    outer loop
      vertex 127.3 42.7346 0
      vertex 132.11 0 0
      vertex 127.3 5.40545 0
    endloop
  endfacet
  facet normal 0 0 -1
    outer loop
      vertex 132.11 0 0
      vertex 127.3 42.7346 0
      vertex 128.25 44.38 0
    endloop
  endfacet
  facet normal 0 0 -1
    outer loop
      vertex 125.4 5.40545 0
      vertex 127.3 42.7346 0
      vertex 127.3 5.40545 0
    endloop
  endfacet
  facet normal 0 0 -1
    outer loop
      vertex 125.4 5.40545 0
      vertex 125.4 42.7346 0
      vertex 127.3 42.7346 0
    endloop
  endfacet
  facet normal 0 0 -1
    outer loop
      vertex 124.45 3.76 0
      vertex 125.4 42.7346 0
      vertex 125.4 5.40545 0
    endloop
  endfacet
  facet normal -0 0 -1
    outer loop
      vertex 125.4 42.7346 0
      vertex 124.45 3.76 0
      vertex 124.45 44.38 0
    endloop
  endfacet
  facet normal 0 0 -1
    outer loop
      vertex 127.3 5.40545 0
      vertex 132.11 0 0
      vertex 128.25 3.76 0
    endloop
  endfacet
  facet normal 0 0 -1
    outer loop
      vertex 132.11 0 0
      vertex 127.3 2.11455 0
      vertex 128.25 3.76 0
    endloop
  endfacet
  facet normal 0 0 -1
    outer loop
      vertex 132.11 0 0
      vertex 125.4 2.11455 0
      vertex 127.3 2.11455 0
    endloop
  endfacet
  facet normal 0 0 -1
    outer loop
      vertex 124.45 3.76 0
      vertex 7.66 3.76 0
      vertex 124.45 44.38 0
    endloop
  endfacet
  facet normal 0 0 -1
    outer loop
      vertex 125.4 2.11455 0
      vertex 7.66 3.76 0
      vertex 124.45 3.76 0
    endloop
  endfacet
  facet normal 0 0 -1
    outer loop
      vertex 6.71 2.11455 0
      vertex 125.4 2.11455 0
      vertex 132.11 0 0
    endloop
  endfacet
  facet normal 0 0 -1
    outer loop
      vertex 125.4 2.11455 0
      vertex 6.71 2.11455 0
      vertex 7.66 3.76 0
    endloop
  endfacet
  facet normal 0 0 -1
    outer loop
      vertex 0 0 0
      vertex 6.71 2.11455 0
      vertex 132.11 0 0
    endloop
  endfacet
  facet normal -0 0 -1
    outer loop
      vertex 4.81 42.7346 0
      vertex 0 0 0
      vertex 3.86 44.38 0
    endloop
  endfacet
  facet normal -0 0 -1
    outer loop
      vertex 4.81 2.11455 0
      vertex 0 0 0
      vertex 3.86 3.76 0
    endloop
  endfacet
  facet normal -0 0 -1
    outer loop
      vertex 6.71 2.11455 0
      vertex 0 0 0
      vertex 4.81 2.11455 0
    endloop
  endfacet
  facet normal 0 0 -1
    outer loop
      vertex 132.11 0 0
      vertex 128.25 44.38 0
      vertex 132.11 50.14 0
    endloop
  endfacet
  facet normal 0 0 -1
    outer loop
      vertex 127.3 46.0254 0
      vertex 132.11 50.14 0
      vertex 128.25 44.38 0
    endloop
  endfacet
  facet normal 0 0 -1
    outer loop
      vertex 125.4 46.0254 0
      vertex 132.11 50.14 0
      vertex 127.3 46.0254 0
    endloop
  endfacet
  facet normal 0 0 -1
    outer loop
      vertex 7.66 44.38 0
      vertex 124.45 44.38 0
      vertex 7.66 3.76 0
    endloop
  endfacet
  facet normal 0 0 -1
    outer loop
      vertex 124.45 44.38 0
      vertex 7.66 44.38 0
      vertex 125.4 46.0254 0
    endloop
  endfacet
  facet normal 0 0 -1
    outer loop
      vertex 6.71 46.0254 0
      vertex 125.4 46.0254 0
      vertex 7.66 44.38 0
    endloop
  endfacet
  facet normal 0 0 -1
    outer loop
      vertex 125.4 46.0254 0
      vertex 6.71 46.0254 0
      vertex 132.11 50.14 0
    endloop
  endfacet
  facet normal 0 0 -1
    outer loop
      vertex 0 50.14 0
      vertex 6.71 46.0254 0
      vertex 4.81 46.0254 0
    endloop
  endfacet
  facet normal 0 0 -1
    outer loop
      vertex 6.71 46.0254 0
      vertex 0 50.14 0
      vertex 132.11 50.14 0
    endloop
  endfacet
  facet normal 0 0 -1
    outer loop
      vertex 3.86 44.38 0
      vertex 0 50.14 0
      vertex 4.81 46.0254 0
    endloop
  endfacet
  facet normal 0 0 -1
    outer loop
      vertex 0 50.14 0
      vertex 3.86 44.38 0
      vertex 0 0 0
    endloop
  endfacet
  facet normal 0 -1 0
    outer loop
      vertex 0 0 15
      vertex 2 0 13
      vertex 9.52 0 15
    endloop
  endfacet
  facet normal 0 -1 0
    outer loop
      vertex 0 0 15
      vertex 2 0 11
      vertex 2 0 13
    endloop
  endfacet
  facet normal 0 -1 0
    outer loop
      vertex 2 0 11
      vertex 9.52 0 2
      vertex 9.52 0 11
    endloop
  endfacet
  facet normal 0 -1 -0
    outer loop
      vertex 9.52 0 2
      vertex 0 0 0
      vertex 122.59 0 2
    endloop
  endfacet
  facet normal 0 -1 -0
    outer loop
      vertex 2 0 11
      vertex 0 0 0
      vertex 9.52 0 2
    endloop
  endfacet
  facet normal 0 -1 0
    outer loop
      vertex 0 0 0
      vertex 2 0 11
      vertex 0 0 15
    endloop
  endfacet
  facet normal 0 -1 -0
    outer loop
      vertex 9.52 0 15
      vertex 2 0 13
      vertex 9.52 0 13
    endloop
  endfacet
  facet normal 0 -1 0
    outer loop
      vertex 122.59 0 11
      vertex 122.59 0 2
      vertex 130.11 0 11
    endloop
  endfacet
  facet normal 0 -1 0
    outer loop
      vertex 130.11 0 13
      vertex 122.59 0 15
      vertex 122.59 0 13
    endloop
  endfacet
  facet normal 0 -1 0
    outer loop
      vertex 122.59 0 15
      vertex 130.11 0 13
      vertex 132.11 0 15
    endloop
  endfacet
  facet normal 0 -1 0
    outer loop
      vertex 130.11 0 11
      vertex 132.11 0 15
      vertex 130.11 0 13
    endloop
  endfacet
  facet normal 0 -1 0
    outer loop
      vertex 130.11 0 11
      vertex 132.11 0 0
      vertex 132.11 0 15
    endloop
  endfacet
  facet normal 0 -1 0
    outer loop
      vertex 122.59 0 2
      vertex 132.11 0 0
      vertex 130.11 0 11
    endloop
  endfacet
  facet normal 0 -1 0
    outer loop
      vertex 132.11 0 0
      vertex 122.59 0 2
      vertex 0 0 0
    endloop
  endfacet
  facet normal 1 0 0
    outer loop
      vertex 9.52 48.14 11
      vertex 9.52 40.62 9
      vertex 9.52 48.14 2
    endloop
  endfacet
  facet normal 1 0 0
    outer loop
      vertex 9.52 48.14 11
      vertex 9.52 7.52 9
      vertex 9.52 40.62 9
    endloop
  endfacet
  facet normal 1 -0 0
    outer loop
      vertex 9.52 0 11
      vertex 9.52 7.52 9
      vertex 9.52 48.14 11
    endloop
  endfacet
  facet normal 1 0 0
    outer loop
      vertex 9.52 0 2
      vertex 9.52 7.52 9
      vertex 9.52 0 11
    endloop
  endfacet
  facet normal 1 0 0
    outer loop
      vertex 9.52 7.52 9
      vertex 9.52 0 2
      vertex 9.52 7.52 2
    endloop
  endfacet
  facet normal 1 0 0
    outer loop
      vertex 9.52 48.14 2
      vertex 9.52 40.62 9
      vertex 9.52 40.62 2
    endloop
  endfacet
  facet normal 1 -0 0
    outer loop
      vertex 9.52 0 15
      vertex 9.52 48.14 13
      vertex 9.52 48.14 15
    endloop
  endfacet
  facet normal 1 0 0
    outer loop
      vertex 9.52 48.14 13
      vertex 9.52 0 15
      vertex 9.52 0 13
    endloop
  endfacet
  facet normal -1 0 0
    outer loop
      vertex 122.59 0 13
      vertex 122.59 48.14 15
      vertex 122.59 48.14 13
    endloop
  endfacet
  facet normal -1 -0 0
    outer loop
      vertex 122.59 48.14 15
      vertex 122.59 0 13
      vertex 122.59 0 15
    endloop
  endfacet
  facet normal -1 0 0
    outer loop
      vertex 122.59 7.52 2
      vertex 122.59 0 2
      vertex 122.59 7.52 9
    endloop
  endfacet
  facet normal -1 0 0
    outer loop
      vertex 122.59 40.62 9
      vertex 122.59 48.14 2
      vertex 122.59 40.62 2
    endloop
  endfacet
  facet normal -1 0 0
    outer loop
      vertex 122.59 48.14 2
      vertex 122.59 40.62 9
      vertex 122.59 48.14 11
    endloop
  endfacet
  facet normal -1 0 0
    outer loop
      vertex 122.59 7.52 9
      vertex 122.59 48.14 11
      vertex 122.59 40.62 9
    endloop
  endfacet
  facet normal -1 0 0
    outer loop
      vertex 122.59 7.52 9
      vertex 122.59 0 11
      vertex 122.59 48.14 11
    endloop
  endfacet
  facet normal -1 0 0
    outer loop
      vertex 122.59 0 11
      vertex 122.59 7.52 9
      vertex 122.59 0 2
    endloop
  endfacet
  facet normal -0 0 1
    outer loop
      vertex 2 40.62 2
      vertex 9.52 7.52 2
      vertex 9.52 40.62 2
    endloop
  endfacet
  facet normal 0 0 1
    outer loop
      vertex 9.52 7.52 2
      vertex 2 40.62 2
      vertex 2 7.52 2
    endloop
  endfacet
  facet normal 0 0 1
    outer loop
      vertex 9.52 40.62 2
      vertex 122.59 40.62 2
      vertex 122.59 48.14 2
    endloop
  endfacet
  facet normal 0 0 1
    outer loop
      vertex 122.59 40.62 2
      vertex 9.52 40.62 2
      vertex 122.59 7.52 2
    endloop
  endfacet
  facet normal 0 0 1
    outer loop
      vertex 9.52 40.62 2
      vertex 122.59 48.14 2
      vertex 9.52 48.14 2
    endloop
  endfacet
  facet normal 0 0 1
    outer loop
      vertex 9.52 7.52 2
      vertex 122.59 7.52 2
      vertex 9.52 40.62 2
    endloop
  endfacet
  facet normal 0 0 1
    outer loop
      vertex 122.59 7.52 2
      vertex 9.52 7.52 2
      vertex 122.59 0 2
    endloop
  endfacet
  facet normal 0 0 1
    outer loop
      vertex 122.59 0 2
      vertex 9.52 7.52 2
      vertex 9.52 0 2
    endloop
  endfacet
  facet normal -0 0 1
    outer loop
      vertex 122.59 40.62 2
      vertex 130.11 34.07 2
      vertex 130.11 40.62 2
    endloop
  endfacet
  facet normal 0 0 1
    outer loop
      vertex 130.11 34.07 2
      vertex 122.59 40.62 2
      vertex 130.11 14.07 2
    endloop
  endfacet
  facet normal 0 0 1
    outer loop
      vertex 122.59 7.52 2
      vertex 130.11 14.07 2
      vertex 122.59 40.62 2
    endloop
  endfacet
  facet normal 0 0 1
    outer loop
      vertex 130.11 14.07 2
      vertex 122.59 7.52 2
      vertex 130.11 7.52 2
    endloop
  endfacet
  facet normal -0 0 1
    outer loop
      vertex 130.11 34.07 2
      vertex 132.11 14.07 2
      vertex 132.11 34.07 2
    endloop
  endfacet
  facet normal 0 0 1
    outer loop
      vertex 132.11 14.07 2
      vertex 130.11 34.07 2
      vertex 130.11 14.07 2
    endloop
  endfacet
  facet normal 0 -1 0
    outer loop
      vertex 9.52 48.14 2
      vertex 122.59 48.14 11
      vertex 9.52 48.14 11
    endloop
  endfacet
  facet normal 0 -1 -0
    outer loop
      vertex 122.59 48.14 11
      vertex 9.52 48.14 2
      vertex 122.59 48.14 2
    endloop
  endfacet
  facet normal 0 -1 0
    outer loop
      vertex 9.52 48.14 11
      vertex 9.52 48.14 13
      vertex 2 48.14 13
    endloop
  endfacet
  facet normal 0 -1 0
    outer loop
      vertex 9.52 48.14 13
      vertex 9.52 48.14 11
      vertex 122.59 48.14 13
    endloop
  endfacet
  facet normal 0 -1 0
    outer loop
      vertex 9.52 48.14 11
      vertex 2 48.14 13
      vertex 2 48.14 11
    endloop
  endfacet
  facet normal 0 -1 0
    outer loop
      vertex 122.59 48.14 11
      vertex 122.59 48.14 13
      vertex 9.52 48.14 11
    endloop
  endfacet
  facet normal 0 -1 0
    outer loop
      vertex 122.59 48.14 13
      vertex 122.59 48.14 11
      vertex 130.11 48.14 13
    endloop
  endfacet
  facet normal 0 -1 -0
    outer loop
      vertex 130.11 48.14 13
      vertex 122.59 48.14 11
      vertex 130.11 48.14 11
    endloop
  endfacet
  facet normal 0 -1 0
    outer loop
      vertex 9.52 48.14 13
      vertex 122.59 48.14 15
      vertex 9.52 48.14 15
    endloop
  endfacet
  facet normal 0 -1 -0
    outer loop
      vertex 122.59 48.14 15
      vertex 9.52 48.14 13
      vertex 122.59 48.14 13
    endloop
  endfacet
  facet normal 1 -0 0
    outer loop
      vertex 2 0 13
      vertex 2 48.14 11
      vertex 2 48.14 13
    endloop
  endfacet
  facet normal 1 0 0
    outer loop
      vertex 2 48.14 11
      vertex 2 0 13
      vertex 2 0 11
    endloop
  endfacet
  facet normal 0 0 -1
    outer loop
      vertex 127.3 5.40545 13
      vertex 128.25 44.38 13
      vertex 128.25 3.76 13
    endloop
  endfacet
  facet normal 0 0 -1
    outer loop
      vertex 127.3 5.40545 13
      vertex 127.3 42.7346 13
      vertex 128.25 44.38 13
    endloop
  endfacet
  facet normal 0 0 -1
    outer loop
      vertex 125.4 5.40545 13
      vertex 127.3 42.7346 13
      vertex 127.3 5.40545 13
    endloop
  endfacet
  facet normal 0 0 -1
    outer loop
      vertex 125.4 5.40545 13
      vertex 125.4 42.7346 13
      vertex 127.3 42.7346 13
    endloop
  endfacet
  facet normal 0 0 -1
    outer loop
      vertex 124.45 3.76 13
      vertex 125.4 42.7346 13
      vertex 125.4 5.40545 13
    endloop
  endfacet
  facet normal -0 0 -1
    outer loop
      vertex 125.4 42.7346 13
      vertex 124.45 3.76 13
      vertex 124.45 44.38 13
    endloop
  endfacet
  facet normal 0 0 -1
    outer loop
      vertex 130.11 0 13
      vertex 128.25 3.76 13
      vertex 130.11 48.14 13
    endloop
  endfacet
  facet normal 0 0 -1
    outer loop
      vertex 130.11 0 13
      vertex 127.3 2.11455 13
      vertex 128.25 3.76 13
    endloop
  endfacet
  facet normal 0 0 -1
    outer loop
      vertex 130.11 0 13
      vertex 125.4 2.11455 13
      vertex 127.3 2.11455 13
    endloop
  endfacet
  facet normal -0 0 -1
    outer loop
      vertex 124.45 3.76 13
      vertex 122.59 0 13
      vertex 124.45 44.38 13
    endloop
  endfacet
  facet normal -0 0 -1
    outer loop
      vertex 125.4 2.11455 13
      vertex 122.59 0 13
      vertex 124.45 3.76 13
    endloop
  endfacet
  facet normal 0 0 -1
    outer loop
      vertex 122.59 0 13
      vertex 125.4 2.11455 13
      vertex 130.11 0 13
    endloop
  endfacet
  facet normal 0 0 -1
    outer loop
      vertex 128.25 44.38 13
      vertex 130.11 48.14 13
      vertex 128.25 3.76 13
    endloop
  endfacet
  facet normal 0 0 -1
    outer loop
      vertex 127.3 46.0254 13
      vertex 130.11 48.14 13
      vertex 128.25 44.38 13
    endloop
  endfacet
  facet normal 0 0 -1
    outer loop
      vertex 125.4 46.0254 13
      vertex 130.11 48.14 13
      vertex 127.3 46.0254 13
    endloop
  endfacet
  facet normal 0 0 -1
    outer loop
      vertex 125.4 46.0254 13
      vertex 122.59 48.14 13
      vertex 130.11 48.14 13
    endloop
  endfacet
  facet normal 0 0 -1
    outer loop
      vertex 124.45 44.38 13
      vertex 122.59 48.14 13
      vertex 125.4 46.0254 13
    endloop
  endfacet
  facet normal 0 0 -1
    outer loop
      vertex 122.59 48.14 13
      vertex 124.45 44.38 13
      vertex 122.59 0 13
    endloop
  endfacet
  facet normal 0 0 -1
    outer loop
      vertex 6.71 5.40545 13
      vertex 7.66 44.38 13
      vertex 7.66 3.76 13
    endloop
  endfacet
  facet normal 0 0 -1
    outer loop
      vertex 6.71 5.40545 13
      vertex 6.71 42.7346 13
      vertex 7.66 44.38 13
    endloop
  endfacet
  facet normal 0 0 -1
    outer loop
      vertex 4.81 5.40545 13
      vertex 6.71 42.7346 13
      vertex 6.71 5.40545 13
    endloop
  endfacet
  facet normal 0 0 -1
    outer loop
      vertex 4.81 5.40545 13
      vertex 4.81 42.7346 13
      vertex 6.71 42.7346 13
    endloop
  endfacet
  facet normal 0 0 -1
    outer loop
      vertex 3.86 3.76 13
      vertex 4.81 42.7346 13
      vertex 4.81 5.40545 13
    endloop
  endfacet
  facet normal -0 0 -1
    outer loop
      vertex 4.81 42.7346 13
      vertex 3.86 3.76 13
      vertex 3.86 44.38 13
    endloop
  endfacet
  facet normal 0 0 -1
    outer loop
      vertex 9.52 0 13
      vertex 7.66 3.76 13
      vertex 9.52 48.14 13
    endloop
  endfacet
  facet normal 0 0 -1
    outer loop
      vertex 9.52 0 13
      vertex 6.71 2.11455 13
      vertex 7.66 3.76 13
    endloop
  endfacet
  facet normal 0 0 -1
    outer loop
      vertex 9.52 0 13
      vertex 4.81 2.11455 13
      vertex 6.71 2.11455 13
    endloop
  endfacet
  facet normal -0 0 -1
    outer loop
      vertex 3.86 3.76 13
      vertex 2 0 13
      vertex 3.86 44.38 13
    endloop
  endfacet
  facet normal -0 0 -1
    outer loop
      vertex 4.81 2.11455 13
      vertex 2 0 13
      vertex 3.86 3.76 13
    endloop
  endfacet
  facet normal 0 0 -1
    outer loop
      vertex 2 0 13
      vertex 4.81 2.11455 13
      vertex 9.52 0 13
    endloop
  endfacet
  facet normal 0 0 -1
    outer loop
      vertex 7.66 44.38 13
      vertex 9.52 48.14 13
      vertex 7.66 3.76 13
    endloop
  endfacet
  facet normal 0 0 -1
    outer loop
      vertex 6.71 46.0254 13
      vertex 9.52 48.14 13
      vertex 7.66 44.38 13
    endloop
  endfacet
  facet normal 0 0 -1
    outer loop
      vertex 4.81 46.0254 13
      vertex 9.52 48.14 13
      vertex 6.71 46.0254 13
    endloop
  endfacet
  facet normal 0 0 -1
    outer loop
      vertex 4.81 46.0254 13
      vertex 2 48.14 13
      vertex 9.52 48.14 13
    endloop
  endfacet
  facet normal 0 0 -1
    outer loop
      vertex 3.86 44.38 13
      vertex 2 48.14 13
      vertex 4.81 46.0254 13
    endloop
  endfacet
  facet normal 0 0 -1
    outer loop
      vertex 2 48.14 13
      vertex 3.86 44.38 13
      vertex 2 0 13
    endloop
  endfacet
  facet normal -1 0 0
    outer loop
      vertex 130.11 34.07 11
      vertex 130.11 48.14 13
      vertex 130.11 48.14 11
    endloop
  endfacet
  facet normal -1 0 0
    outer loop
      vertex 130.11 14.07 11
      vertex 130.11 48.14 13
      vertex 130.11 34.07 11
    endloop
  endfacet
  facet normal -1 0 0
    outer loop
      vertex 130.11 0 13
      vertex 130.11 14.07 11
      vertex 130.11 0 11
    endloop
  endfacet
  facet normal -1 0 0
    outer loop
      vertex 130.11 14.07 11
      vertex 130.11 0 13
      vertex 130.11 48.14 13
    endloop
  endfacet
  facet normal -0 0 1
    outer loop
      vertex 6.71 42.7346 11
      vertex 7.66 3.76 11
      vertex 7.66 44.38 11
    endloop
  endfacet
  facet normal 0 0 1
    outer loop
      vertex 6.71 42.7346 11
      vertex 6.71 5.40545 11
      vertex 7.66 3.76 11
    endloop
  endfacet
  facet normal -0 0 1
    outer loop
      vertex 4.81 42.7346 11
      vertex 6.71 5.40545 11
      vertex 6.71 42.7346 11
    endloop
  endfacet
  facet normal 0 0 1
    outer loop
      vertex 4.81 42.7346 11
      vertex 4.81 5.40545 11
      vertex 6.71 5.40545 11
    endloop
  endfacet
  facet normal 0 0 1
    outer loop
      vertex 3.86 44.38 11
      vertex 4.81 5.40545 11
      vertex 4.81 42.7346 11
    endloop
  endfacet
  facet normal 0 0 1
    outer loop
      vertex 4.81 5.40545 11
      vertex 3.86 44.38 11
      vertex 3.86 3.76 11
    endloop
  endfacet
  facet normal 0 0 1
    outer loop
      vertex 9.52 48.14 11
      vertex 7.66 44.38 11
      vertex 9.52 0 11
    endloop
  endfacet
  facet normal 0 0 1
    outer loop
      vertex 9.52 48.14 11
      vertex 6.71 46.0254 11
      vertex 7.66 44.38 11
    endloop
  endfacet
  facet normal 0 0 1
    outer loop
      vertex 9.52 48.14 11
      vertex 4.81 46.0254 11
      vertex 6.71 46.0254 11
    endloop
  endfacet
  facet normal 0 0 1
    outer loop
      vertex 3.86 44.38 11
      vertex 2 48.14 11
      vertex 3.86 3.76 11
    endloop
  endfacet
  facet normal 0 0 1
    outer loop
      vertex 4.81 46.0254 11
      vertex 2 48.14 11
      vertex 3.86 44.38 11
    endloop
  endfacet
  facet normal -0 0 1
    outer loop
      vertex 2 48.14 11
      vertex 4.81 46.0254 11
      vertex 9.52 48.14 11
    endloop
  endfacet
  facet normal -0 0 1
    outer loop
      vertex 7.66 3.76 11
      vertex 9.52 0 11
      vertex 7.66 44.38 11
    endloop
  endfacet
  facet normal -0 0 1
    outer loop
      vertex 6.71 2.11455 11
      vertex 9.52 0 11
      vertex 7.66 3.76 11
    endloop
  endfacet
  facet normal -0 0 1
    outer loop
      vertex 4.81 2.11455 11
      vertex 9.52 0 11
      vertex 6.71 2.11455 11
    endloop
  endfacet
  facet normal 0 0 1
    outer loop
      vertex 4.81 2.11455 11
      vertex 2 0 11
      vertex 9.52 0 11
    endloop
  endfacet
  facet normal 0 0 1
    outer loop
      vertex 3.86 3.76 11
      vertex 2 0 11
      vertex 4.81 2.11455 11
    endloop
  endfacet
  facet normal 0 0 1
    outer loop
      vertex 2 0 11
      vertex 3.86 3.76 11
      vertex 2 48.14 11
    endloop
  endfacet
  facet normal 0 0 1
    outer loop
      vertex 130.11 34.07 11
      vertex 125.4 42.7346 11
      vertex 130.11 14.07 11
    endloop
  endfacet
  facet normal 0 0 1
    outer loop
      vertex 130.11 14.07 11
      vertex 127.3 5.40545 11
      vertex 128.25 3.76 11
    endloop
  endfacet
  facet normal 0 0 1
    outer loop
      vertex 125.4 5.40545 11
      vertex 130.11 14.07 11
      vertex 125.4 42.7346 11
    endloop
  endfacet
  facet normal 0 0 1
    outer loop
      vertex 130.11 14.07 11
      vertex 125.4 5.40545 11
      vertex 127.3 5.40545 11
    endloop
  endfacet
  facet normal 0 0 1
    outer loop
      vertex 124.45 44.38 11
      vertex 125.4 5.40545 11
      vertex 125.4 42.7346 11
    endloop
  endfacet
  facet normal 0 0 1
    outer loop
      vertex 125.4 5.40545 11
      vertex 124.45 44.38 11
      vertex 124.45 3.76 11
    endloop
  endfacet
  facet normal -0 0 1
    outer loop
      vertex 128.25 44.38 11
      vertex 130.11 34.07 11
      vertex 130.11 48.14 11
    endloop
  endfacet
  facet normal -0 0 1
    outer loop
      vertex 127.3 42.7346 11
      vertex 130.11 34.07 11
      vertex 128.25 44.38 11
    endloop
  endfacet
  facet normal -0 0 1
    outer loop
      vertex 125.4 42.7346 11
      vertex 130.11 34.07 11
      vertex 127.3 42.7346 11
    endloop
  endfacet
  facet normal 0 0 1
    outer loop
      vertex 130.11 48.14 11
      vertex 127.3 46.0254 11
      vertex 128.25 44.38 11
    endloop
  endfacet
  facet normal 0 0 1
    outer loop
      vertex 130.11 48.14 11
      vertex 125.4 46.0254 11
      vertex 127.3 46.0254 11
    endloop
  endfacet
  facet normal 0 0 1
    outer loop
      vertex 124.45 44.38 11
      vertex 122.59 48.14 11
      vertex 124.45 3.76 11
    endloop
  endfacet
  facet normal 0 0 1
    outer loop
      vertex 125.4 46.0254 11
      vertex 122.59 48.14 11
      vertex 124.45 44.38 11
    endloop
  endfacet
  facet normal -0 0 1
    outer loop
      vertex 122.59 48.14 11
      vertex 125.4 46.0254 11
      vertex 130.11 48.14 11
    endloop
  endfacet
  facet normal 0 0 1
    outer loop
      vertex 130.11 14.07 11
      vertex 128.25 3.76 11
      vertex 130.11 0 11
    endloop
  endfacet
  facet normal -0 0 1
    outer loop
      vertex 127.3 2.11455 11
      vertex 130.11 0 11
      vertex 128.25 3.76 11
    endloop
  endfacet
  facet normal -0 0 1
    outer loop
      vertex 125.4 2.11455 11
      vertex 130.11 0 11
      vertex 127.3 2.11455 11
    endloop
  endfacet
  facet normal 0 0 1
    outer loop
      vertex 125.4 2.11455 11
      vertex 122.59 0 11
      vertex 130.11 0 11
    endloop
  endfacet
  facet normal 0 0 1
    outer loop
      vertex 124.45 3.76 11
      vertex 122.59 0 11
      vertex 125.4 2.11455 11
    endloop
  endfacet
  facet normal 0 0 1
    outer loop
      vertex 122.59 0 11
      vertex 124.45 3.76 11
      vertex 122.59 48.14 11
    endloop
  endfacet
  facet normal 1 -0 0
    outer loop
      vertex 2 7.52 9
      vertex 2 40.62 2
      vertex 2 40.62 9
    endloop
  endfacet
  facet normal 1 0 0
    outer loop
      vertex 2 40.62 2
      vertex 2 7.52 9
      vertex 2 7.52 2
    endloop
  endfacet
  facet normal 0 0 -1
    outer loop
      vertex 122.59 7.52 9
      vertex 130.11 14.07 9
      vertex 130.11 7.52 9
    endloop
  endfacet
  facet normal -0 0 -1
    outer loop
      vertex 130.11 14.07 9
      vertex 122.59 7.52 9
      vertex 130.11 34.07 9
    endloop
  endfacet
  facet normal 0 0 -1
    outer loop
      vertex 122.59 40.62 9
      vertex 130.11 34.07 9
      vertex 122.59 7.52 9
    endloop
  endfacet
  facet normal 0 0 -1
    outer loop
      vertex 130.11 34.07 9
      vertex 122.59 40.62 9
      vertex 130.11 40.62 9
    endloop
  endfacet
  facet normal 0 0 -1
    outer loop
      vertex 2 7.52 9
      vertex 9.52 40.62 9
      vertex 9.52 7.52 9
    endloop
  endfacet
  facet normal -0 0 -1
    outer loop
      vertex 9.52 40.62 9
      vertex 2 7.52 9
      vertex 2 40.62 9
    endloop
  endfacet
  facet normal -1 0 0
    outer loop
      vertex 130.11 7.52 2
      vertex 130.11 14.07 9
      vertex 130.11 14.07 2
    endloop
  endfacet
  facet normal -1 -0 0
    outer loop
      vertex 130.11 14.07 9
      vertex 130.11 7.52 2
      vertex 130.11 7.52 9
    endloop
  endfacet
  facet normal -1 0 0
    outer loop
      vertex 130.11 34.07 2
      vertex 130.11 40.62 9
      vertex 130.11 40.62 2
    endloop
  endfacet
  facet normal -1 -0 0
    outer loop
      vertex 130.11 40.62 9
      vertex 130.11 34.07 2
      vertex 130.11 34.07 9
    endloop
  endfacet
  facet normal 1 -0 0
    outer loop
      vertex 130.11 14.07 11
      vertex 130.11 34.07 9
      vertex 130.11 34.07 11
    endloop
  endfacet
  facet normal 1 0 0
    outer loop
      vertex 130.11 34.07 9
      vertex 130.11 14.07 11
      vertex 130.11 14.07 9
    endloop
  endfacet
  facet normal 0 -1 0
    outer loop
      vertex 122.59 40.62 2
      vertex 130.11 40.62 9
      vertex 122.59 40.62 9
    endloop
  endfacet
  facet normal 0 -1 -0
    outer loop
      vertex 130.11 40.62 9
      vertex 122.59 40.62 2
      vertex 130.11 40.62 2
    endloop
  endfacet
  facet normal 0 -1 0
    outer loop
      vertex 2 40.62 2
      vertex 9.52 40.62 9
      vertex 2 40.62 9
    endloop
  endfacet
  facet normal 0 -1 -0
    outer loop
      vertex 9.52 40.62 9
      vertex 2 40.62 2
      vertex 9.52 40.62 2
    endloop
  endfacet
  facet normal 0 1 -0
    outer loop
      vertex 130.11 7.52 2
      vertex 122.59 7.52 9
      vertex 130.11 7.52 9
    endloop
  endfacet
  facet normal 0 1 0
    outer loop
      vertex 122.59 7.52 9
      vertex 130.11 7.52 2
      vertex 122.59 7.52 2
    endloop
  endfacet
  facet normal 0 1 -0
    outer loop
      vertex 9.52 7.52 2
      vertex 2 7.52 9
      vertex 9.52 7.52 9
    endloop
  endfacet
  facet normal 0 1 0
    outer loop
      vertex 2 7.52 9
      vertex 9.52 7.52 2
      vertex 2 7.52 2
    endloop
  endfacet
  facet normal -0.866025 -0.5 0
    outer loop
      vertex 7.66 3.76 0
      vertex 6.71 5.40545 11
      vertex 6.71 5.40545 0
    endloop
  endfacet
  facet normal -0.866025 -0.5 0
    outer loop
      vertex 6.71 5.40545 11
      vertex 7.66 3.76 0
      vertex 7.66 3.76 11
    endloop
  endfacet
  facet normal -0.866025 -0.5 0
    outer loop
      vertex 7.66 3.76 13
      vertex 6.71 5.40545 15
      vertex 6.71 5.40545 13
    endloop
  endfacet
  facet normal -0.866025 -0.5 0
    outer loop
      vertex 6.71 5.40545 15
      vertex 7.66 3.76 13
      vertex 7.66 3.76 15
    endloop
  endfacet
  facet normal 0 -1 0
    outer loop
      vertex 4.81 5.40545 0
      vertex 6.71 5.40545 11
      vertex 4.81 5.40545 11
    endloop
  endfacet
  facet normal 0 -1 -0
    outer loop
      vertex 6.71 5.40545 11
      vertex 4.81 5.40545 0
      vertex 6.71 5.40545 0
    endloop
  endfacet
  facet normal 0 -1 0
    outer loop
      vertex 4.81 5.40545 13
      vertex 6.71 5.40545 15
      vertex 4.81 5.40545 15
    endloop
  endfacet
  facet normal 0 -1 -0
    outer loop
      vertex 6.71 5.40545 15
      vertex 4.81 5.40545 13
      vertex 6.71 5.40545 13
    endloop
  endfacet
  facet normal 0 1 -0
    outer loop
      vertex 6.71 2.11455 13
      vertex 4.81 2.11455 15
      vertex 6.71 2.11455 15
    endloop
  endfacet
  facet normal 0 1 0
    outer loop
      vertex 4.81 2.11455 15
      vertex 6.71 2.11455 13
      vertex 4.81 2.11455 13
    endloop
  endfacet
  facet normal 0 1 -0
    outer loop
      vertex 6.71 2.11455 0
      vertex 4.81 2.11455 11
      vertex 6.71 2.11455 11
    endloop
  endfacet
  facet normal 0 1 0
    outer loop
      vertex 4.81 2.11455 11
      vertex 6.71 2.11455 0
      vertex 4.81 2.11455 0
    endloop
  endfacet
  facet normal 0.866026 -0.5 0
    outer loop
      vertex 3.86 3.76 11
      vertex 4.81 5.40545 0
      vertex 4.81 5.40545 11
    endloop
  endfacet
  facet normal 0.866026 -0.5 0
    outer loop
      vertex 4.81 5.40545 0
      vertex 3.86 3.76 11
      vertex 3.86 3.76 0
    endloop
  endfacet
  facet normal 0.866026 -0.5 0
    outer loop
      vertex 3.86 3.76 15
      vertex 4.81 5.40545 13
      vertex 4.81 5.40545 15
    endloop
  endfacet
  facet normal 0.866026 -0.5 0
    outer loop
      vertex 4.81 5.40545 13
      vertex 3.86 3.76 15
      vertex 3.86 3.76 13
    endloop
  endfacet
  facet normal 0.866025 0.5 0
    outer loop
      vertex 4.81 2.11455 11
      vertex 3.86 3.76 0
      vertex 3.86 3.76 11
    endloop
  endfacet
  facet normal 0.866025 0.5 0
    outer loop
      vertex 3.86 3.76 0
      vertex 4.81 2.11455 11
      vertex 4.81 2.11455 0
    endloop
  endfacet
  facet normal 0.866025 0.5 0
    outer loop
      vertex 4.81 2.11455 15
      vertex 3.86 3.76 13
      vertex 3.86 3.76 15
    endloop
  endfacet
  facet normal 0.866025 0.5 0
    outer loop
      vertex 3.86 3.76 13
      vertex 4.81 2.11455 15
      vertex 4.81 2.11455 13
    endloop
  endfacet
  facet normal -0.866025 0.5 0
    outer loop
      vertex 6.71 2.11455 13
      vertex 7.66 3.76 15
      vertex 7.66 3.76 13
    endloop
  endfacet
  facet normal -0.866025 0.5 0
    outer loop
      vertex 7.66 3.76 15
      vertex 6.71 2.11455 13
      vertex 6.71 2.11455 15
    endloop
  endfacet
  facet normal -0.866025 0.5 0
    outer loop
      vertex 6.71 2.11455 0
      vertex 7.66 3.76 11
      vertex 7.66 3.76 0
    endloop
  endfacet
  facet normal -0.866025 0.5 0
    outer loop
      vertex 7.66 3.76 11
      vertex 6.71 2.11455 0
      vertex 6.71 2.11455 11
    endloop
  endfacet
  facet normal -0.866026 -0.5 0
    outer loop
      vertex 7.66 44.38 0
      vertex 6.71 46.0254 11
      vertex 6.71 46.0254 0
    endloop
  endfacet
  facet normal -0.866026 -0.5 0
    outer loop
      vertex 6.71 46.0254 11
      vertex 7.66 44.38 0
      vertex 7.66 44.38 11
    endloop
  endfacet
  facet normal -0.866026 -0.5 0
    outer loop
      vertex 7.66 44.38 13
      vertex 6.71 46.0254 15
      vertex 6.71 46.0254 13
    endloop
  endfacet
  facet normal -0.866026 -0.5 0
    outer loop
      vertex 6.71 46.0254 15
      vertex 7.66 44.38 13
      vertex 7.66 44.38 15
    endloop
  endfacet
  facet normal 0.866025 0.5 0
    outer loop
      vertex 4.81 42.7346 15
      vertex 3.86 44.38 13
      vertex 3.86 44.38 15
    endloop
  endfacet
  facet normal 0.866025 0.5 0
    outer loop
      vertex 3.86 44.38 13
      vertex 4.81 42.7346 15
      vertex 4.81 42.7346 13
    endloop
  endfacet
  facet normal 0.866025 0.5 0
    outer loop
      vertex 4.81 42.7346 11
      vertex 3.86 44.38 0
      vertex 3.86 44.38 11
    endloop
  endfacet
  facet normal 0.866025 0.5 0
    outer loop
      vertex 3.86 44.38 0
      vertex 4.81 42.7346 11
      vertex 4.81 42.7346 0
    endloop
  endfacet
  facet normal 0 -1 0
    outer loop
      vertex 4.81 46.0254 0
      vertex 6.71 46.0254 11
      vertex 4.81 46.0254 11
    endloop
  endfacet
  facet normal 0 -1 -0
    outer loop
      vertex 6.71 46.0254 11
      vertex 4.81 46.0254 0
      vertex 6.71 46.0254 0
    endloop
  endfacet
  facet normal 0 -1 0
    outer loop
      vertex 4.81 46.0254 13
      vertex 6.71 46.0254 15
      vertex 4.81 46.0254 15
    endloop
  endfacet
  facet normal 0 -1 -0
    outer loop
      vertex 6.71 46.0254 15
      vertex 4.81 46.0254 13
      vertex 6.71 46.0254 13
    endloop
  endfacet
  facet normal 0 1 -0
    outer loop
      vertex 6.71 42.7346 13
      vertex 4.81 42.7346 15
      vertex 6.71 42.7346 15
    endloop
  endfacet
  facet normal 0 1 0
    outer loop
      vertex 4.81 42.7346 15
      vertex 6.71 42.7346 13
      vertex 4.81 42.7346 13
    endloop
  endfacet
  facet normal 0 1 -0
    outer loop
      vertex 6.71 42.7346 0
      vertex 4.81 42.7346 11
      vertex 6.71 42.7346 11
    endloop
  endfacet
  facet normal 0 1 0
    outer loop
      vertex 4.81 42.7346 11
      vertex 6.71 42.7346 0
      vertex 4.81 42.7346 0
    endloop
  endfacet
  facet normal 0.866026 -0.499999 0
    outer loop
      vertex 3.86 44.38 11
      vertex 4.81 46.0254 0
      vertex 4.81 46.0254 11
    endloop
  endfacet
  facet normal 0.866026 -0.499999 0
    outer loop
      vertex 4.81 46.0254 0
      vertex 3.86 44.38 11
      vertex 3.86 44.38 0
    endloop
  endfacet
  facet normal 0.866026 -0.499999 0
    outer loop
      vertex 3.86 44.38 15
      vertex 4.81 46.0254 13
      vertex 4.81 46.0254 15
    endloop
  endfacet
  facet normal 0.866026 -0.499999 0
    outer loop
      vertex 4.81 46.0254 13
      vertex 3.86 44.38 15
      vertex 3.86 44.38 13
    endloop
  endfacet
  facet normal -0.866025 0.500001 0
    outer loop
      vertex 6.71 42.7346 13
      vertex 7.66 44.38 15
      vertex 7.66 44.38 13
    endloop
  endfacet
  facet normal -0.866025 0.500001 0
    outer loop
      vertex 7.66 44.38 15
      vertex 6.71 42.7346 13
      vertex 6.71 42.7346 15
    endloop
  endfacet
  facet normal -0.866025 0.500001 0
    outer loop
      vertex 6.71 42.7346 0
      vertex 7.66 44.38 11
      vertex 7.66 44.38 0
    endloop
  endfacet
  facet normal -0.866025 0.500001 0
    outer loop
      vertex 7.66 44.38 11
      vertex 6.71 42.7346 0
      vertex 6.71 42.7346 11
    endloop
  endfacet
  facet normal -0.866026 -0.499998 0
    outer loop
      vertex 128.25 44.38 0
      vertex 127.3 46.0254 11
      vertex 127.3 46.0254 0
    endloop
  endfacet
  facet normal -0.866026 -0.499998 0
    outer loop
      vertex 127.3 46.0254 11
      vertex 128.25 44.38 0
      vertex 128.25 44.38 11
    endloop
  endfacet
  facet normal -0.866026 -0.499998 0
    outer loop
      vertex 128.25 44.38 13
      vertex 127.3 46.0254 15
      vertex 127.3 46.0254 13
    endloop
  endfacet
  facet normal -0.866026 -0.499998 0
    outer loop
      vertex 127.3 46.0254 15
      vertex 128.25 44.38 13
      vertex 128.25 44.38 15
    endloop
  endfacet
  facet normal 0.866024 0.500002 0
    outer loop
      vertex 125.4 42.7346 11
      vertex 124.45 44.38 0
      vertex 124.45 44.38 11
    endloop
  endfacet
  facet normal 0.866024 0.500002 0
    outer loop
      vertex 124.45 44.38 0
      vertex 125.4 42.7346 11
      vertex 125.4 42.7346 0
    endloop
  endfacet
  facet normal 0.866024 0.500002 0
    outer loop
      vertex 125.4 42.7346 15
      vertex 124.45 44.38 13
      vertex 124.45 44.38 15
    endloop
  endfacet
  facet normal 0.866024 0.500002 0
    outer loop
      vertex 124.45 44.38 13
      vertex 125.4 42.7346 15
      vertex 125.4 42.7346 13
    endloop
  endfacet
  facet normal 0 -1 0
    outer loop
      vertex 125.4 46.0254 0
      vertex 127.3 46.0254 11
      vertex 125.4 46.0254 11
    endloop
  endfacet
  facet normal 0 -1 -0
    outer loop
      vertex 127.3 46.0254 11
      vertex 125.4 46.0254 0
      vertex 127.3 46.0254 0
    endloop
  endfacet
  facet normal 0 -1 0
    outer loop
      vertex 125.4 46.0254 13
      vertex 127.3 46.0254 15
      vertex 125.4 46.0254 15
    endloop
  endfacet
  facet normal 0 -1 -0
    outer loop
      vertex 127.3 46.0254 15
      vertex 125.4 46.0254 13
      vertex 127.3 46.0254 13
    endloop
  endfacet
  facet normal 0.866025 -0.500001 0
    outer loop
      vertex 124.45 44.38 11
      vertex 125.4 46.0254 0
      vertex 125.4 46.0254 11
    endloop
  endfacet
  facet normal 0.866025 -0.500001 0
    outer loop
      vertex 125.4 46.0254 0
      vertex 124.45 44.38 11
      vertex 124.45 44.38 0
    endloop
  endfacet
  facet normal 0.866025 -0.500001 0
    outer loop
      vertex 124.45 44.38 15
      vertex 125.4 46.0254 13
      vertex 125.4 46.0254 15
    endloop
  endfacet
  facet normal 0.866025 -0.500001 0
    outer loop
      vertex 125.4 46.0254 13
      vertex 124.45 44.38 15
      vertex 124.45 44.38 13
    endloop
  endfacet
  facet normal -0.866026 0.499999 0
    outer loop
      vertex 127.3 42.7346 13
      vertex 128.25 44.38 15
      vertex 128.25 44.38 13
    endloop
  endfacet
  facet normal -0.866026 0.499999 0
    outer loop
      vertex 128.25 44.38 15
      vertex 127.3 42.7346 13
      vertex 127.3 42.7346 15
    endloop
  endfacet
  facet normal -0.866026 0.499999 0
    outer loop
      vertex 127.3 42.7346 0
      vertex 128.25 44.38 11
      vertex 128.25 44.38 0
    endloop
  endfacet
  facet normal -0.866026 0.499999 0
    outer loop
      vertex 128.25 44.38 11
      vertex 127.3 42.7346 0
      vertex 127.3 42.7346 11
    endloop
  endfacet
  facet normal 0 1 -0
    outer loop
      vertex 127.3 42.7346 13
      vertex 125.4 42.7346 15
      vertex 127.3 42.7346 15
    endloop
  endfacet
  facet normal 0 1 0
    outer loop
      vertex 125.4 42.7346 15
      vertex 127.3 42.7346 13
      vertex 125.4 42.7346 13
    endloop
  endfacet
  facet normal 0 1 -0
    outer loop
      vertex 127.3 42.7346 0
      vertex 125.4 42.7346 11
      vertex 127.3 42.7346 11
    endloop
  endfacet
  facet normal 0 1 0
    outer loop
      vertex 125.4 42.7346 11
      vertex 127.3 42.7346 0
      vertex 125.4 42.7346 0
    endloop
  endfacet
  facet normal -0.866026 -0.499999 0
    outer loop
      vertex 128.25 3.76 0
      vertex 127.3 5.40545 11
      vertex 127.3 5.40545 0
    endloop
  endfacet
  facet normal -0.866026 -0.499999 0
    outer loop
      vertex 127.3 5.40545 11
      vertex 128.25 3.76 0
      vertex 128.25 3.76 11
    endloop
  endfacet
  facet normal -0.866026 -0.499999 0
    outer loop
      vertex 128.25 3.76 13
      vertex 127.3 5.40545 15
      vertex 127.3 5.40545 13
    endloop
  endfacet
  facet normal -0.866026 -0.499999 0
    outer loop
      vertex 127.3 5.40545 15
      vertex 128.25 3.76 13
      vertex 128.25 3.76 15
    endloop
  endfacet
  facet normal 0.866024 0.500002 0
    outer loop
      vertex 125.4 2.11455 15
      vertex 124.45 3.76 13
      vertex 124.45 3.76 15
    endloop
  endfacet
  facet normal 0.866024 0.500002 0
    outer loop
      vertex 124.45 3.76 13
      vertex 125.4 2.11455 15
      vertex 125.4 2.11455 13
    endloop
  endfacet
  facet normal 0.866024 0.500002 0
    outer loop
      vertex 125.4 2.11455 11
      vertex 124.45 3.76 0
      vertex 124.45 3.76 11
    endloop
  endfacet
  facet normal 0.866024 0.500002 0
    outer loop
      vertex 124.45 3.76 0
      vertex 125.4 2.11455 11
      vertex 125.4 2.11455 0
    endloop
  endfacet
  facet normal 0 -1 0
    outer loop
      vertex 125.4 5.40545 0
      vertex 127.3 5.40545 11
      vertex 125.4 5.40545 11
    endloop
  endfacet
  facet normal 0 -1 -0
    outer loop
      vertex 127.3 5.40545 11
      vertex 125.4 5.40545 0
      vertex 127.3 5.40545 0
    endloop
  endfacet
  facet normal 0 -1 0
    outer loop
      vertex 125.4 5.40545 13
      vertex 127.3 5.40545 15
      vertex 125.4 5.40545 15
    endloop
  endfacet
  facet normal 0 -1 -0
    outer loop
      vertex 127.3 5.40545 15
      vertex 125.4 5.40545 13
      vertex 127.3 5.40545 13
    endloop
  endfacet
  facet normal 0 1 -0
    outer loop
      vertex 127.3 2.11455 13
      vertex 125.4 2.11455 15
      vertex 127.3 2.11455 15
    endloop
  endfacet
  facet normal 0 1 0
    outer loop
      vertex 125.4 2.11455 15
      vertex 127.3 2.11455 13
      vertex 125.4 2.11455 13
    endloop
  endfacet
  facet normal 0 1 -0
    outer loop
      vertex 127.3 2.11455 0
      vertex 125.4 2.11455 11
      vertex 127.3 2.11455 11
    endloop
  endfacet
  facet normal 0 1 0
    outer loop
      vertex 125.4 2.11455 11
      vertex 127.3 2.11455 0
      vertex 125.4 2.11455 0
    endloop
  endfacet
  facet normal 0.866024 -0.500002 0
    outer loop
      vertex 124.45 3.76 11
      vertex 125.4 5.40545 0
      vertex 125.4 5.40545 11
    endloop
  endfacet
  facet normal 0.866024 -0.500002 0
    outer loop
      vertex 125.4 5.40545 0
      vertex 124.45 3.76 11
      vertex 124.45 3.76 0
    endloop
  endfacet
  facet normal 0.866024 -0.500002 0
    outer loop
      vertex 124.45 3.76 15
      vertex 125.4 5.40545 13
      vertex 125.4 5.40545 15
    endloop
  endfacet
  facet normal 0.866024 -0.500002 0
    outer loop
      vertex 125.4 5.40545 13
      vertex 124.45 3.76 15
      vertex 124.45 3.76 13
    endloop
  endfacet
  facet normal -0.866026 0.499999 0
    outer loop
      vertex 127.3 2.11455 13
      vertex 128.25 3.76 15
      vertex 128.25 3.76 13
    endloop
  endfacet
  facet normal -0.866026 0.499999 0
    outer loop
      vertex 128.25 3.76 15
      vertex 127.3 2.11455 13
      vertex 127.3 2.11455 15
    endloop
  endfacet
  facet normal -0.866026 0.499999 0
    outer loop
      vertex 127.3 2.11455 0
      vertex 128.25 3.76 11
      vertex 128.25 3.76 0
    endloop
  endfacet
  facet normal -0.866026 0.499999 0
    outer loop
      vertex 128.25 3.76 11
      vertex 127.3 2.11455 0
      vertex 127.3 2.11455 11
    endloop
  endfacet
  facet normal 0 0 -1
    outer loop
      vertex 130.11 14.07 11
      vertex 132.11 34.07 11
      vertex 132.11 14.07 11
    endloop
  endfacet
  facet normal -0 0 -1
    outer loop
      vertex 132.11 34.07 11
      vertex 130.11 14.07 11
      vertex 130.11 34.07 11
    endloop
  endfacet
  facet normal 0 -1 0
    outer loop
      vertex 130.11 34.07 9
      vertex 132.11 34.07 11
      vertex 130.11 34.07 11
    endloop
  endfacet
  facet normal 0 -1 0
    outer loop
      vertex 132.11 34.07 2
      vertex 130.11 34.07 9
      vertex 130.11 34.07 2
    endloop
  endfacet
  facet normal 0 -1 0
    outer loop
      vertex 130.11 34.07 9
      vertex 132.11 34.07 2
      vertex 132.11 34.07 11
    endloop
  endfacet
  facet normal 0 1 0
    outer loop
      vertex 132.11 14.07 11
      vertex 130.11 14.07 9
      vertex 130.11 14.07 11
    endloop
  endfacet
  facet normal 0 1 -0
    outer loop
      vertex 132.11 14.07 2
      vertex 130.11 14.07 9
      vertex 132.11 14.07 11
    endloop
  endfacet
  facet normal 0 1 0
    outer loop
      vertex 130.11 14.07 9
      vertex 132.11 14.07 2
      vertex 130.11 14.07 2
    endloop
  endfacet
  facet normal -1 0 0
    outer loop
      vertex 132.11 0 11
      vertex 132.11 48.14 13
      vertex 132.11 48.14 11
    endloop
  endfacet
  facet normal -1 -0 0
    outer loop
      vertex 132.11 48.14 13
      vertex 132.11 0 11
      vertex 132.11 0 13
    endloop
  endfacet
  facet normal -1 0 0
    outer loop
      vertex 132.11 48.14 11
      vertex 132.11 50.14 0
      vertex 132.11 48.14 2
    endloop
  endfacet
  facet normal -1 0 0
    outer loop
      vertex 132.11 0 0
      vertex 132.11 48.14 2
      vertex 132.11 50.14 0
    endloop
  endfacet
  facet normal -1 -0 0
    outer loop
      vertex 132.11 48.14 2
      vertex 132.11 0 0
      vertex 132.11 0 2
    endloop
  endfacet
  facet normal -1 0 0
    outer loop
      vertex 132.11 50.14 0
      vertex 132.11 48.14 11
      vertex 132.11 50.14 15
    endloop
  endfacet
  facet normal -1 0 0
    outer loop
      vertex 132.11 48.14 13
      vertex 132.11 50.14 15
      vertex 132.11 48.14 11
    endloop
  endfacet
  facet normal -1 -0 0
    outer loop
      vertex 132.11 50.14 15
      vertex 132.11 48.14 13
      vertex 132.11 48.14 15
    endloop
  endfacet
  facet normal 0 0 1
    outer loop
      vertex 139.63 48.14 13
      vertex 137.77 3.76 13
      vertex 139.63 0 13
    endloop
  endfacet
  facet normal 0 0 1
    outer loop
      vertex 139.63 48.14 13
      vertex 136.82 5.40545 13
      vertex 137.77 3.76 13
    endloop
  endfacet
  facet normal 0 0 1
    outer loop
      vertex 139.63 48.14 13
      vertex 134.92 5.40545 13
      vertex 136.82 5.40545 13
    endloop
  endfacet
  facet normal -0 0 1
    outer loop
      vertex 132.11 48.14 13
      vertex 134.92 5.40545 13
      vertex 139.63 48.14 13
    endloop
  endfacet
  facet normal 0 0 1
    outer loop
      vertex 134.92 5.40545 13
      vertex 132.11 48.14 13
      vertex 133.97 3.76 13
    endloop
  endfacet
  facet normal -0 0 1
    outer loop
      vertex 136.82 2.11455 13
      vertex 139.63 0 13
      vertex 137.77 3.76 13
    endloop
  endfacet
  facet normal -0 0 1
    outer loop
      vertex 134.92 2.11455 13
      vertex 139.63 0 13
      vertex 136.82 2.11455 13
    endloop
  endfacet
  facet normal 0 0 1
    outer loop
      vertex 134.92 2.11455 13
      vertex 132.11 0 13
      vertex 139.63 0 13
    endloop
  endfacet
  facet normal 0 0 1
    outer loop
      vertex 133.97 3.76 13
      vertex 132.11 0 13
      vertex 134.92 2.11455 13
    endloop
  endfacet
  facet normal 0 0 1
    outer loop
      vertex 132.11 0 13
      vertex 133.97 3.76 13
      vertex 132.11 48.14 13
    endloop
  endfacet
  facet normal 1 -0 0
    outer loop
      vertex 139.63 0 13
      vertex 139.63 48.14 11
      vertex 139.63 48.14 13
    endloop
  endfacet
  facet normal 1 0 0
    outer loop
      vertex 139.63 48.14 11
      vertex 139.63 0 13
      vertex 139.63 0 11
    endloop
  endfacet
  facet normal 0 0 -1
    outer loop
      vertex 139.63 0 11
      vertex 137.77 3.76 11
      vertex 139.63 48.14 11
    endloop
  endfacet
  facet normal 0 0 -1
    outer loop
      vertex 139.63 0 11
      vertex 136.82 2.11455 11
      vertex 137.77 3.76 11
    endloop
  endfacet
  facet normal 0 0 -1
    outer loop
      vertex 139.63 0 11
      vertex 134.92 2.11455 11
      vertex 136.82 2.11455 11
    endloop
  endfacet
  facet normal -0 0 -1
    outer loop
      vertex 134.92 2.11455 11
      vertex 132.11 0 11
      vertex 133.97 3.76 11
    endloop
  endfacet
  facet normal 0 0 -1
    outer loop
      vertex 132.11 0 11
      vertex 134.92 2.11455 11
      vertex 139.63 0 11
    endloop
  endfacet
  facet normal 0 0 -1
    outer loop
      vertex 136.82 5.40545 11
      vertex 139.63 48.14 11
      vertex 137.77 3.76 11
    endloop
  endfacet
  facet normal 0 0 -1
    outer loop
      vertex 134.92 5.40545 11
      vertex 139.63 48.14 11
      vertex 136.82 5.40545 11
    endloop
  endfacet
  facet normal 0 0 -1
    outer loop
      vertex 132.11 48.14 11
      vertex 134.92 5.40545 11
      vertex 133.97 3.76 11
    endloop
  endfacet
  facet normal 0 0 -1
    outer loop
      vertex 132.11 48.14 11
      vertex 133.97 3.76 11
      vertex 132.11 0 11
    endloop
  endfacet
  facet normal 0 0 -1
    outer loop
      vertex 134.92 5.40545 11
      vertex 132.11 48.14 11
      vertex 139.63 48.14 11
    endloop
  endfacet
  facet normal 0 -1 0
    outer loop
      vertex 132.11 0 0
      vertex 142.11 0 2
      vertex 132.11 0 2
    endloop
  endfacet
  facet normal 0 -1 -0
    outer loop
      vertex 142.11 0 2
      vertex 132.11 0 0
      vertex 145.66 0 2
    endloop
  endfacet
  facet normal 0 -1 -0
    outer loop
      vertex 145.66 0 2
      vertex 132.11 0 0
      vertex 168.56 0 2
    endloop
  endfacet
  facet normal 0 -1 0
    outer loop
      vertex 184.11 0 0
      vertex 168.56 0 2
      vertex 132.11 0 0
    endloop
  endfacet
  facet normal 0 -1 0
    outer loop
      vertex 168.56 0 2
      vertex 184.11 0 0
      vertex 172.11 0 2
    endloop
  endfacet
  facet normal 0 -1 0
    outer loop
      vertex 142.11 0 2
      vertex 145.66 0 4.5
      vertex 142.11 0 4.5
    endloop
  endfacet
  facet normal 0 -1 -0
    outer loop
      vertex 145.66 0 4.5
      vertex 142.11 0 2
      vertex 145.66 0 2
    endloop
  endfacet
  facet normal 0 -1 0
    outer loop
      vertex 168.56 0 2
      vertex 172.11 0 4.5
      vertex 168.56 0 4.5
    endloop
  endfacet
  facet normal 0 -1 -0
    outer loop
      vertex 172.11 0 4.5
      vertex 168.56 0 2
      vertex 172.11 0 2
    endloop
  endfacet
  facet normal 0 -1 0
    outer loop
      vertex 174.59 0 13
      vertex 174.59 0 11
      vertex 182.11 0 13
    endloop
  endfacet
  facet normal 0 -1 0
    outer loop
      vertex 182.11 0 13
      vertex 184.11 0 15
      vertex 182.11 0 15
    endloop
  endfacet
  facet normal 0 -1 0
    outer loop
      vertex 182.11 0 11
      vertex 182.11 0 13
      vertex 174.59 0 11
    endloop
  endfacet
  facet normal 0 -1 0
    outer loop
      vertex 182.11 0 11
      vertex 184.11 0 15
      vertex 182.11 0 13
    endloop
  endfacet
  facet normal 0 -1 0
    outer loop
      vertex 184.11 0 0
      vertex 182.11 0 11
      vertex 182.11 0 2
    endloop
  endfacet
  facet normal 0 -1 0
    outer loop
      vertex 182.11 0 11
      vertex 184.11 0 0
      vertex 184.11 0 15
    endloop
  endfacet
  facet normal 0 -1 0
    outer loop
      vertex 172.11 0 2
      vertex 184.11 0 0
      vertex 182.11 0 2
    endloop
  endfacet
  facet normal 0 -1 0
    outer loop
      vertex 132.11 0 11
      vertex 139.63 0 13
      vertex 132.11 0 13
    endloop
  endfacet
  facet normal 0 -1 -0
    outer loop
      vertex 139.63 0 13
      vertex 132.11 0 11
      vertex 139.63 0 11
    endloop
  endfacet
  facet normal 0 -1 0
    outer loop
      vertex 145.66 48.14 2
      vertex 168.56 48.14 4.5
      vertex 145.66 48.14 4.5
    endloop
  endfacet
  facet normal 0 -1 -0
    outer loop
      vertex 168.56 48.14 4.5
      vertex 145.66 48.14 2
      vertex 168.56 48.14 2
    endloop
  endfacet
  facet normal 0 -1 0
    outer loop
      vertex 132.11 48.14 2
      vertex 139.63 48.14 11
      vertex 132.11 48.14 11
    endloop
  endfacet
  facet normal 0 -1 0
    outer loop
      vertex 139.63 48.14 11
      vertex 145.66 48.14 4.5
      vertex 174.59 48.14 11
    endloop
  endfacet
  facet normal 0 -1 0
    outer loop
      vertex 139.63 48.14 11
      vertex 142.11 48.14 4.5
      vertex 145.66 48.14 4.5
    endloop
  endfacet
  facet normal 0 -1 -0
    outer loop
      vertex 139.63 48.14 11
      vertex 132.11 48.14 2
      vertex 142.11 48.14 4.5
    endloop
  endfacet
  facet normal 0 -1 -0
    outer loop
      vertex 142.11 48.14 4.5
      vertex 132.11 48.14 2
      vertex 142.11 48.14 2
    endloop
  endfacet
  facet normal 0 -1 0
    outer loop
      vertex 139.63 48.14 11
      vertex 174.59 48.14 13
      vertex 139.63 48.14 13
    endloop
  endfacet
  facet normal 0 -1 -0
    outer loop
      vertex 174.59 48.14 13
      vertex 139.63 48.14 11
      vertex 174.59 48.14 11
    endloop
  endfacet
  facet normal 0 -1 0
    outer loop
      vertex 139.63 48.14 13
      vertex 132.11 48.14 15
      vertex 132.11 48.14 13
    endloop
  endfacet
  facet normal 0 -1 0
    outer loop
      vertex 132.11 48.14 15
      vertex 139.63 48.14 13
      vertex 182.11 48.14 15
    endloop
  endfacet
  facet normal 0 -1 0
    outer loop
      vertex 174.59 48.14 13
      vertex 182.11 48.14 15
      vertex 139.63 48.14 13
    endloop
  endfacet
  facet normal 0 -1 -0
    outer loop
      vertex 182.11 48.14 15
      vertex 174.59 48.14 13
      vertex 182.11 48.14 13
    endloop
  endfacet
  facet normal 0 -1 0
    outer loop
      vertex 168.56 48.14 4.5
      vertex 174.59 48.14 11
      vertex 145.66 48.14 4.5
    endloop
  endfacet
  facet normal 0 -1 0
    outer loop
      vertex 172.11 48.14 4.5
      vertex 174.59 48.14 11
      vertex 168.56 48.14 4.5
    endloop
  endfacet
  facet normal 0 -1 0
    outer loop
      vertex 182.11 48.14 2
      vertex 174.59 48.14 11
      vertex 172.11 48.14 4.5
    endloop
  endfacet
  facet normal 0 -1 0
    outer loop
      vertex 182.11 48.14 2
      vertex 172.11 48.14 4.5
      vertex 172.11 48.14 2
    endloop
  endfacet
  facet normal 0 -1 0
    outer loop
      vertex 174.59 48.14 11
      vertex 182.11 48.14 2
      vertex 182.11 48.14 11
    endloop
  endfacet
  facet normal -1 0 0
    outer loop
      vertex 174.59 0 11
      vertex 174.59 48.14 13
      vertex 174.59 48.14 11
    endloop
  endfacet
  facet normal -1 -0 0
    outer loop
      vertex 174.59 48.14 13
      vertex 174.59 0 11
      vertex 174.59 0 13
    endloop
  endfacet
  facet normal 0 0 1
    outer loop
      vertex 182.11 48.14 13
      vertex 180.25 3.76 13
      vertex 182.11 0 13
    endloop
  endfacet
  facet normal 0 0 1
    outer loop
      vertex 182.11 48.14 13
      vertex 179.3 5.40545 13
      vertex 180.25 3.76 13
    endloop
  endfacet
  facet normal 0 0 1
    outer loop
      vertex 182.11 48.14 13
      vertex 177.4 5.40545 13
      vertex 179.3 5.40545 13
    endloop
  endfacet
  facet normal -0 0 1
    outer loop
      vertex 174.59 48.14 13
      vertex 177.4 5.40545 13
      vertex 182.11 48.14 13
    endloop
  endfacet
  facet normal 0 0 1
    outer loop
      vertex 177.4 5.40545 13
      vertex 174.59 48.14 13
      vertex 176.45 3.76 13
    endloop
  endfacet
  facet normal -0 0 1
    outer loop
      vertex 179.3 2.11455 13
      vertex 182.11 0 13
      vertex 180.25 3.76 13
    endloop
  endfacet
  facet normal -0 0 1
    outer loop
      vertex 177.4 2.11455 13
      vertex 182.11 0 13
      vertex 179.3 2.11455 13
    endloop
  endfacet
  facet normal 0 0 1
    outer loop
      vertex 177.4 2.11455 13
      vertex 174.59 0 13
      vertex 182.11 0 13
    endloop
  endfacet
  facet normal 0 0 1
    outer loop
      vertex 176.45 3.76 13
      vertex 174.59 0 13
      vertex 177.4 2.11455 13
    endloop
  endfacet
  facet normal 0 0 1
    outer loop
      vertex 174.59 0 13
      vertex 176.45 3.76 13
      vertex 174.59 48.14 13
    endloop
  endfacet
  facet normal -1 0 0
    outer loop
      vertex 182.11 0 13
      vertex 182.11 48.14 15
      vertex 182.11 48.14 13
    endloop
  endfacet
  facet normal -1 -0 0
    outer loop
      vertex 182.11 48.14 15
      vertex 182.11 0 13
      vertex 182.11 0 15
    endloop
  endfacet
  facet normal -1 0 0
    outer loop
      vertex 182.11 0 2
      vertex 182.11 48.14 11
      vertex 182.11 48.14 2
    endloop
  endfacet
  facet normal -1 -0 0
    outer loop
      vertex 182.11 48.14 11
      vertex 182.11 0 2
      vertex 182.11 0 11
    endloop
  endfacet
  facet normal 0 0 -1
    outer loop
      vertex 182.11 0 11
      vertex 180.25 3.76 11
      vertex 182.11 48.14 11
    endloop
  endfacet
  facet normal 0 0 -1
    outer loop
      vertex 182.11 0 11
      vertex 179.3 2.11455 11
      vertex 180.25 3.76 11
    endloop
  endfacet
  facet normal 0 0 -1
    outer loop
      vertex 182.11 0 11
      vertex 177.4 2.11455 11
      vertex 179.3 2.11455 11
    endloop
  endfacet
  facet normal -0 0 -1
    outer loop
      vertex 177.4 2.11455 11
      vertex 174.59 0 11
      vertex 176.45 3.76 11
    endloop
  endfacet
  facet normal 0 0 -1
    outer loop
      vertex 174.59 0 11
      vertex 177.4 2.11455 11
      vertex 182.11 0 11
    endloop
  endfacet
  facet normal 0 0 -1
    outer loop
      vertex 179.3 5.40545 11
      vertex 182.11 48.14 11
      vertex 180.25 3.76 11
    endloop
  endfacet
  facet normal 0 0 -1
    outer loop
      vertex 177.4 5.40545 11
      vertex 182.11 48.14 11
      vertex 179.3 5.40545 11
    endloop
  endfacet
  facet normal 0 0 -1
    outer loop
      vertex 174.59 48.14 11
      vertex 177.4 5.40545 11
      vertex 176.45 3.76 11
    endloop
  endfacet
  facet normal 0 0 -1
    outer loop
      vertex 174.59 48.14 11
      vertex 176.45 3.76 11
      vertex 174.59 0 11
    endloop
  endfacet
  facet normal 0 0 -1
    outer loop
      vertex 177.4 5.40545 11
      vertex 174.59 48.14 11
      vertex 182.11 48.14 11
    endloop
  endfacet
  facet normal -0.866023 -0.500005 0
    outer loop
      vertex 137.77 3.76 11
      vertex 136.82 5.40545 13
      vertex 136.82 5.40545 11
    endloop
  endfacet
  facet normal -0.866023 -0.500005 0
    outer loop
      vertex 136.82 5.40545 13
      vertex 137.77 3.76 11
      vertex 137.77 3.76 13
    endloop
  endfacet
  facet normal 0.866026 0.499999 0
    outer loop
      vertex 134.92 2.11455 13
      vertex 133.97 3.76 11
      vertex 133.97 3.76 13
    endloop
  endfacet
  facet normal 0.866026 0.499999 0
    outer loop
      vertex 133.97 3.76 11
      vertex 134.92 2.11455 13
      vertex 134.92 2.11455 11
    endloop
  endfacet
  facet normal 0 -1 0
    outer loop
      vertex 134.92 5.40545 11
      vertex 136.82 5.40545 13
      vertex 134.92 5.40545 13
    endloop
  endfacet
  facet normal 0 -1 -0
    outer loop
      vertex 136.82 5.40545 13
      vertex 134.92 5.40545 11
      vertex 136.82 5.40545 11
    endloop
  endfacet
  facet normal 0 1 -0
    outer loop
      vertex 136.82 2.11455 11
      vertex 134.92 2.11455 13
      vertex 136.82 2.11455 13
    endloop
  endfacet
  facet normal 0 1 0
    outer loop
      vertex 134.92 2.11455 13
      vertex 136.82 2.11455 11
      vertex 134.92 2.11455 11
    endloop
  endfacet
  facet normal 0.866026 -0.499999 0
    outer loop
      vertex 133.97 3.76 13
      vertex 134.92 5.40545 11
      vertex 134.92 5.40545 13
    endloop
  endfacet
  facet normal 0.866026 -0.499999 0
    outer loop
      vertex 134.92 5.40545 11
      vertex 133.97 3.76 13
      vertex 133.97 3.76 11
    endloop
  endfacet
  facet normal -0.866023 0.500005 0
    outer loop
      vertex 136.82 2.11455 11
      vertex 137.77 3.76 13
      vertex 137.77 3.76 11
    endloop
  endfacet
  facet normal -0.866023 0.500005 0
    outer loop
      vertex 137.77 3.76 13
      vertex 136.82 2.11455 11
      vertex 136.82 2.11455 13
    endloop
  endfacet
  facet normal -0.866026 -0.499999 0
    outer loop
      vertex 180.25 3.76 11
      vertex 179.3 5.40545 13
      vertex 179.3 5.40545 11
    endloop
  endfacet
  facet normal -0.866026 -0.499999 0
    outer loop
      vertex 179.3 5.40545 13
      vertex 180.25 3.76 11
      vertex 180.25 3.76 13
    endloop
  endfacet
  facet normal 0.866026 -0.499999 0
    outer loop
      vertex 176.45 3.76 13
      vertex 177.4 5.40545 11
      vertex 177.4 5.40545 13
    endloop
  endfacet
  facet normal 0.866026 -0.499999 0
    outer loop
      vertex 177.4 5.40545 11
      vertex 176.45 3.76 13
      vertex 176.45 3.76 11
    endloop
  endfacet
  facet normal 0 -1 0
    outer loop
      vertex 177.4 5.40545 11
      vertex 179.3 5.40545 13
      vertex 177.4 5.40545 13
    endloop
  endfacet
  facet normal 0 -1 -0
    outer loop
      vertex 179.3 5.40545 13
      vertex 177.4 5.40545 11
      vertex 179.3 5.40545 11
    endloop
  endfacet
  facet normal 0.866026 0.499999 0
    outer loop
      vertex 177.4 2.11455 13
      vertex 176.45 3.76 11
      vertex 176.45 3.76 13
    endloop
  endfacet
  facet normal 0.866026 0.499999 0
    outer loop
      vertex 176.45 3.76 11
      vertex 177.4 2.11455 13
      vertex 177.4 2.11455 11
    endloop
  endfacet
  facet normal 0 1 -0
    outer loop
      vertex 179.3 2.11455 11
      vertex 177.4 2.11455 13
      vertex 179.3 2.11455 13
    endloop
  endfacet
  facet normal 0 1 0
    outer loop
      vertex 177.4 2.11455 13
      vertex 179.3 2.11455 11
      vertex 177.4 2.11455 11
    endloop
  endfacet
  facet normal -0.866026 0.499999 0
    outer loop
      vertex 179.3 2.11455 11
      vertex 180.25 3.76 13
      vertex 180.25 3.76 11
    endloop
  endfacet
  facet normal -0.866026 0.499999 0
    outer loop
      vertex 180.25 3.76 13
      vertex 179.3 2.11455 11
      vertex 179.3 2.11455 13
    endloop
  endfacet
  facet normal 0 0 1
    outer loop
      vertex 184.11 50.14 15
      vertex 182.11 48.14 15
      vertex 184.11 0 15
    endloop
  endfacet
  facet normal -0 0 1
    outer loop
      vertex 132.11 50.14 15
      vertex 182.11 48.14 15
      vertex 184.11 50.14 15
    endloop
  endfacet
  facet normal 0 0 1
    outer loop
      vertex 182.11 48.14 15
      vertex 132.11 50.14 15
      vertex 132.11 48.14 15
    endloop
  endfacet
  facet normal 0 0 1
    outer loop
      vertex 184.11 0 15
      vertex 182.11 48.14 15
      vertex 182.11 0 15
    endloop
  endfacet
  facet normal -0 0 1
    outer loop
      vertex 132.11 48.14 2
      vertex 142.11 0 2
      vertex 142.11 48.14 2
    endloop
  endfacet
  facet normal 0 0 1
    outer loop
      vertex 142.11 0 2
      vertex 132.11 48.14 2
      vertex 132.11 0 2
    endloop
  endfacet
  facet normal -0 0 1
    outer loop
      vertex 172.11 48.14 2
      vertex 182.11 0 2
      vertex 182.11 48.14 2
    endloop
  endfacet
  facet normal 0 0 1
    outer loop
      vertex 182.11 0 2
      vertex 172.11 48.14 2
      vertex 172.11 0 2
    endloop
  endfacet
  facet normal -0 0 1
    outer loop
      vertex 145.66 48.14 2
      vertex 168.56 0 2
      vertex 168.56 48.14 2
    endloop
  endfacet
  facet normal 0 0 1
    outer loop
      vertex 168.56 0 2
      vertex 145.66 48.14 2
      vertex 145.66 0 2
    endloop
  endfacet
  facet normal -1 0 0
    outer loop
      vertex 142.11 0 2
      vertex 142.11 48.14 4.5
      vertex 142.11 48.14 2
    endloop
  endfacet
  facet normal -1 -0 0
    outer loop
      vertex 142.11 48.14 4.5
      vertex 142.11 0 2
      vertex 142.11 0 4.5
    endloop
  endfacet
  facet normal -0 0 1
    outer loop
      vertex 144.349 22.6434 4.5
      vertex 145.385 10 4.5
      vertex 145.385 24.07 4.5
    endloop
  endfacet
  facet normal 0 0 1
    outer loop
      vertex 144.349 22.6434 4.5
      vertex 144.349 11.4266 4.5
      vertex 145.385 10 4.5
    endloop
  endfacet
  facet normal 0 0 1
    outer loop
      vertex 142.671 23.1883 4.5
      vertex 144.349 11.4266 4.5
      vertex 144.349 22.6434 4.5
    endloop
  endfacet
  facet normal 0 0 1
    outer loop
      vertex 144.349 11.4266 4.5
      vertex 142.671 23.1883 4.5
      vertex 142.671 10.8817 4.5
    endloop
  endfacet
  facet normal -0 0 1
    outer loop
      vertex 144.349 36.7134 4.5
      vertex 145.385 24.07 4.5
      vertex 145.385 38.14 4.5
    endloop
  endfacet
  facet normal 0 0 1
    outer loop
      vertex 144.349 36.7134 4.5
      vertex 144.349 25.4966 4.5
      vertex 145.385 24.07 4.5
    endloop
  endfacet
  facet normal 0 0 1
    outer loop
      vertex 142.671 37.2583 4.5
      vertex 144.349 25.4966 4.5
      vertex 144.349 36.7134 4.5
    endloop
  endfacet
  facet normal 0 0 1
    outer loop
      vertex 144.349 25.4966 4.5
      vertex 142.671 37.2583 4.5
      vertex 142.671 24.9517 4.5
    endloop
  endfacet
  facet normal 0 0 1
    outer loop
      vertex 145.385 24.07 4.5
      vertex 145.66 48.14 4.5
      vertex 145.385 38.14 4.5
    endloop
  endfacet
  facet normal 0 0 1
    outer loop
      vertex 145.66 48.14 4.5
      vertex 144.349 39.5666 4.5
      vertex 145.385 38.14 4.5
    endloop
  endfacet
  facet normal -0 0 1
    outer loop
      vertex 142.11 48.14 4.5
      vertex 144.349 39.5666 4.5
      vertex 145.66 48.14 4.5
    endloop
  endfacet
  facet normal 0 0 1
    outer loop
      vertex 142.11 48.14 4.5
      vertex 142.671 37.2583 4.5
      vertex 142.671 39.0217 4.5
    endloop
  endfacet
  facet normal 0 0 1
    outer loop
      vertex 142.671 37.2583 4.5
      vertex 142.11 48.14 4.5
      vertex 142.671 24.9517 4.5
    endloop
  endfacet
  facet normal 0 0 1
    outer loop
      vertex 142.671 24.9517 4.5
      vertex 142.11 48.14 4.5
      vertex 142.671 23.1883 4.5
    endloop
  endfacet
  facet normal 0 0 1
    outer loop
      vertex 142.11 0 4.5
      vertex 142.671 23.1883 4.5
      vertex 142.11 48.14 4.5
    endloop
  endfacet
  facet normal 0 0 1
    outer loop
      vertex 142.671 23.1883 4.5
      vertex 142.11 0 4.5
      vertex 142.671 10.8817 4.5
    endloop
  endfacet
  facet normal 0 0 1
    outer loop
      vertex 144.349 39.5666 4.5
      vertex 142.11 48.14 4.5
      vertex 142.671 39.0217 4.5
    endloop
  endfacet
  facet normal 0 0 1
    outer loop
      vertex 145.66 48.14 4.5
      vertex 145.385 24.07 4.5
      vertex 145.66 0 4.5
    endloop
  endfacet
  facet normal -0 0 1
    outer loop
      vertex 145.385 10 4.5
      vertex 145.66 0 4.5
      vertex 145.385 24.07 4.5
    endloop
  endfacet
  facet normal -0 0 1
    outer loop
      vertex 144.349 8.57341 4.5
      vertex 145.66 0 4.5
      vertex 145.385 10 4.5
    endloop
  endfacet
  facet normal 0 0 1
    outer loop
      vertex 142.11 0 4.5
      vertex 144.349 8.57341 4.5
      vertex 142.671 9.11832 4.5
    endloop
  endfacet
  facet normal 0 0 1
    outer loop
      vertex 144.349 8.57341 4.5
      vertex 142.11 0 4.5
      vertex 145.66 0 4.5
    endloop
  endfacet
  facet normal 0 0 1
    outer loop
      vertex 142.671 10.8817 4.5
      vertex 142.11 0 4.5
      vertex 142.671 9.11832 4.5
    endloop
  endfacet
  facet normal 1 -0 0
    outer loop
      vertex 145.66 0 4.5
      vertex 145.66 48.14 2
      vertex 145.66 48.14 4.5
    endloop
  endfacet
  facet normal 1 0 0
    outer loop
      vertex 145.66 48.14 2
      vertex 145.66 0 4.5
      vertex 145.66 0 2
    endloop
  endfacet
  facet normal -1 0 0
    outer loop
      vertex 168.56 0 2
      vertex 168.56 48.14 4.5
      vertex 168.56 48.14 2
    endloop
  endfacet
  facet normal -1 -0 0
    outer loop
      vertex 168.56 48.14 4.5
      vertex 168.56 0 2
      vertex 168.56 0 4.5
    endloop
  endfacet
  facet normal -0 0 1
    outer loop
      vertex 170.799 22.6434 4.5
      vertex 171.835 10 4.5
      vertex 171.835 24.07 4.5
    endloop
  endfacet
  facet normal 0 0 1
    outer loop
      vertex 170.799 22.6434 4.5
      vertex 170.799 11.4266 4.5
      vertex 171.835 10 4.5
    endloop
  endfacet
  facet normal 0 0 1
    outer loop
      vertex 169.121 23.1883 4.5
      vertex 170.799 11.4266 4.5
      vertex 170.799 22.6434 4.5
    endloop
  endfacet
  facet normal 0 0 1
    outer loop
      vertex 170.799 11.4266 4.5
      vertex 169.121 23.1883 4.5
      vertex 169.121 10.8817 4.5
    endloop
  endfacet
  facet normal -0 0 1
    outer loop
      vertex 170.799 36.7134 4.5
      vertex 171.835 24.07 4.5
      vertex 171.835 38.14 4.5
    endloop
  endfacet
  facet normal 0 0 1
    outer loop
      vertex 170.799 36.7134 4.5
      vertex 170.799 25.4966 4.5
      vertex 171.835 24.07 4.5
    endloop
  endfacet
  facet normal 0 0 1
    outer loop
      vertex 169.121 37.2583 4.5
      vertex 170.799 25.4966 4.5
      vertex 170.799 36.7134 4.5
    endloop
  endfacet
  facet normal 0 0 1
    outer loop
      vertex 170.799 25.4966 4.5
      vertex 169.121 37.2583 4.5
      vertex 169.121 24.9517 4.5
    endloop
  endfacet
  facet normal 0 0 1
    outer loop
      vertex 171.835 24.07 4.5
      vertex 172.11 48.14 4.5
      vertex 171.835 38.14 4.5
    endloop
  endfacet
  facet normal 0 0 1
    outer loop
      vertex 172.11 48.14 4.5
      vertex 170.799 39.5666 4.5
      vertex 171.835 38.14 4.5
    endloop
  endfacet
  facet normal -0 0 1
    outer loop
      vertex 168.56 48.14 4.5
      vertex 170.799 39.5666 4.5
      vertex 172.11 48.14 4.5
    endloop
  endfacet
  facet normal 0 0 1
    outer loop
      vertex 168.56 48.14 4.5
      vertex 169.121 37.2583 4.5
      vertex 169.121 39.0217 4.5
    endloop
  endfacet
  facet normal 0 0 1
    outer loop
      vertex 169.121 37.2583 4.5
      vertex 168.56 48.14 4.5
      vertex 169.121 24.9517 4.5
    endloop
  endfacet
  facet normal 0 0 1
    outer loop
      vertex 169.121 24.9517 4.5
      vertex 168.56 48.14 4.5
      vertex 169.121 23.1883 4.5
    endloop
  endfacet
  facet normal 0 0 1
    outer loop
      vertex 168.56 0 4.5
      vertex 169.121 23.1883 4.5
      vertex 168.56 48.14 4.5
    endloop
  endfacet
  facet normal 0 0 1
    outer loop
      vertex 169.121 23.1883 4.5
      vertex 168.56 0 4.5
      vertex 169.121 10.8817 4.5
    endloop
  endfacet
  facet normal 0 0 1
    outer loop
      vertex 170.799 39.5666 4.5
      vertex 168.56 48.14 4.5
      vertex 169.121 39.0217 4.5
    endloop
  endfacet
  facet normal 0 0 1
    outer loop
      vertex 172.11 48.14 4.5
      vertex 171.835 24.07 4.5
      vertex 172.11 0 4.5
    endloop
  endfacet
  facet normal -0 0 1
    outer loop
      vertex 171.835 10 4.5
      vertex 172.11 0 4.5
      vertex 171.835 24.07 4.5
    endloop
  endfacet
  facet normal -0 0 1
    outer loop
      vertex 170.799 8.57341 4.5
      vertex 172.11 0 4.5
      vertex 171.835 10 4.5
    endloop
  endfacet
  facet normal 0 0 1
    outer loop
      vertex 168.56 0 4.5
      vertex 170.799 8.57341 4.5
      vertex 169.121 9.11832 4.5
    endloop
  endfacet
  facet normal 0 0 1
    outer loop
      vertex 170.799 8.57341 4.5
      vertex 168.56 0 4.5
      vertex 172.11 0 4.5
    endloop
  endfacet
  facet normal 0 0 1
    outer loop
      vertex 169.121 10.8817 4.5
      vertex 168.56 0 4.5
      vertex 169.121 9.11832 4.5
    endloop
  endfacet
  facet normal 1 -0 0
    outer loop
      vertex 172.11 0 4.5
      vertex 172.11 48.14 2
      vertex 172.11 48.14 4.5
    endloop
  endfacet
  facet normal 1 0 0
    outer loop
      vertex 172.11 48.14 2
      vertex 172.11 0 4.5
      vertex 172.11 0 2
    endloop
  endfacet
  facet normal -0.809019 -0.587783 0
    outer loop
      vertex 145.385 10 0
      vertex 144.349 11.4266 4.5
      vertex 144.349 11.4266 0
    endloop
  endfacet
  facet normal -0.809019 -0.587783 0
    outer loop
      vertex 144.349 11.4266 4.5
      vertex 145.385 10 0
      vertex 145.385 10 4.5
    endloop
  endfacet
  facet normal 1 -0 0
    outer loop
      vertex 142.671 9.11832 4.5
      vertex 142.671 10.8817 0
      vertex 142.671 10.8817 4.5
    endloop
  endfacet
  facet normal 1 0 0
    outer loop
      vertex 142.671 10.8817 0
      vertex 142.671 9.11832 4.5
      vertex 142.671 9.11832 0
    endloop
  endfacet
  facet normal 0.309017 -0.951056 0
    outer loop
      vertex 142.671 10.8817 0
      vertex 144.349 11.4266 4.5
      vertex 142.671 10.8817 4.5
    endloop
  endfacet
  facet normal 0.309017 -0.951056 0
    outer loop
      vertex 144.349 11.4266 4.5
      vertex 142.671 10.8817 0
      vertex 144.349 11.4266 0
    endloop
  endfacet
  facet normal 0.309017 0.951056 -0
    outer loop
      vertex 144.349 8.57341 0
      vertex 142.671 9.11832 4.5
      vertex 144.349 8.57341 4.5
    endloop
  endfacet
  facet normal 0.309017 0.951056 0
    outer loop
      vertex 142.671 9.11832 4.5
      vertex 144.349 8.57341 0
      vertex 142.671 9.11832 0
    endloop
  endfacet
  facet normal 0 0 -1
    outer loop
      vertex 144.349 25.4966 0
      vertex 145.385 38.14 0
      vertex 145.385 24.07 0
    endloop
  endfacet
  facet normal 0 0 -1
    outer loop
      vertex 144.349 25.4966 0
      vertex 144.349 36.7134 0
      vertex 145.385 38.14 0
    endloop
  endfacet
  facet normal 0 0 -1
    outer loop
      vertex 142.671 24.9517 0
      vertex 144.349 36.7134 0
      vertex 144.349 25.4966 0
    endloop
  endfacet
  facet normal -0 0 -1
    outer loop
      vertex 144.349 36.7134 0
      vertex 142.671 24.9517 0
      vertex 142.671 37.2583 0
    endloop
  endfacet
  facet normal 0 0 -1
    outer loop
      vertex 144.349 11.4266 0
      vertex 145.385 24.07 0
      vertex 145.385 10 0
    endloop
  endfacet
  facet normal 0 0 -1
    outer loop
      vertex 144.349 11.4266 0
      vertex 144.349 22.6434 0
      vertex 145.385 24.07 0
    endloop
  endfacet
  facet normal 0 0 -1
    outer loop
      vertex 142.671 10.8817 0
      vertex 144.349 22.6434 0
      vertex 144.349 11.4266 0
    endloop
  endfacet
  facet normal -0 0 -1
    outer loop
      vertex 144.349 22.6434 0
      vertex 142.671 10.8817 0
      vertex 142.671 23.1883 0
    endloop
  endfacet
  facet normal 0 0 -1
    outer loop
      vertex 170.799 25.4966 0
      vertex 171.835 38.14 0
      vertex 171.835 24.07 0
    endloop
  endfacet
  facet normal 0 0 -1
    outer loop
      vertex 170.799 25.4966 0
      vertex 170.799 36.7134 0
      vertex 171.835 38.14 0
    endloop
  endfacet
  facet normal 0 0 -1
    outer loop
      vertex 169.121 24.9517 0
      vertex 170.799 36.7134 0
      vertex 170.799 25.4966 0
    endloop
  endfacet
  facet normal -0 0 -1
    outer loop
      vertex 170.799 36.7134 0
      vertex 169.121 24.9517 0
      vertex 169.121 37.2583 0
    endloop
  endfacet
  facet normal 0 0 -1
    outer loop
      vertex 170.799 11.4266 0
      vertex 171.835 24.07 0
      vertex 171.835 10 0
    endloop
  endfacet
  facet normal 0 0 -1
    outer loop
      vertex 170.799 11.4266 0
      vertex 170.799 22.6434 0
      vertex 171.835 24.07 0
    endloop
  endfacet
  facet normal 0 0 -1
    outer loop
      vertex 169.121 10.8817 0
      vertex 170.799 22.6434 0
      vertex 170.799 11.4266 0
    endloop
  endfacet
  facet normal -0 0 -1
    outer loop
      vertex 170.799 22.6434 0
      vertex 169.121 10.8817 0
      vertex 169.121 23.1883 0
    endloop
  endfacet
  facet normal 0 0 -1
    outer loop
      vertex 171.835 24.07 0
      vertex 184.11 0 0
      vertex 171.835 10 0
    endloop
  endfacet
  facet normal 0 0 -1
    outer loop
      vertex 184.11 0 0
      vertex 170.799 8.57341 0
      vertex 171.835 10 0
    endloop
  endfacet
  facet normal 0 0 -1
    outer loop
      vertex 184.11 0 0
      vertex 169.121 9.11832 0
      vertex 170.799 8.57341 0
    endloop
  endfacet
  facet normal 0 0 -1
    outer loop
      vertex 145.385 10 0
      vertex 169.121 10.8817 0
      vertex 169.121 9.11832 0
    endloop
  endfacet
  facet normal -0 0 -1
    outer loop
      vertex 169.121 10.8817 0
      vertex 145.385 10 0
      vertex 169.121 23.1883 0
    endloop
  endfacet
  facet normal 0 0 -1
    outer loop
      vertex 169.121 23.1883 0
      vertex 145.385 24.07 0
      vertex 169.121 24.9517 0
    endloop
  endfacet
  facet normal -0 0 -1
    outer loop
      vertex 169.121 24.9517 0
      vertex 145.385 24.07 0
      vertex 169.121 37.2583 0
    endloop
  endfacet
  facet normal -0 0 -1
    outer loop
      vertex 169.121 23.1883 0
      vertex 145.385 10 0
      vertex 145.385 24.07 0
    endloop
  endfacet
  facet normal 0 0 -1
    outer loop
      vertex 132.11 0 0
      vertex 169.121 9.11832 0
      vertex 184.11 0 0
    endloop
  endfacet
  facet normal -0 0 -1
    outer loop
      vertex 169.121 9.11832 0
      vertex 144.349 8.57341 0
      vertex 145.385 10 0
    endloop
  endfacet
  facet normal 0 0 -1
    outer loop
      vertex 132.11 0 0
      vertex 142.671 10.8817 0
      vertex 142.671 9.11832 0
    endloop
  endfacet
  facet normal -0 0 -1
    outer loop
      vertex 142.671 10.8817 0
      vertex 132.11 0 0
      vertex 142.671 23.1883 0
    endloop
  endfacet
  facet normal -0 0 -1
    outer loop
      vertex 142.671 23.1883 0
      vertex 132.11 0 0
      vertex 142.671 24.9517 0
    endloop
  endfacet
  facet normal 0 0 -1
    outer loop
      vertex 132.11 50.14 0
      vertex 142.671 24.9517 0
      vertex 132.11 0 0
    endloop
  endfacet
  facet normal 0 0 -1
    outer loop
      vertex 142.671 24.9517 0
      vertex 132.11 50.14 0
      vertex 142.671 37.2583 0
    endloop
  endfacet
  facet normal -0 0 -1
    outer loop
      vertex 144.349 8.57341 0
      vertex 132.11 0 0
      vertex 142.671 9.11832 0
    endloop
  endfacet
  facet normal 0 0 -1
    outer loop
      vertex 169.121 9.11832 0
      vertex 132.11 0 0
      vertex 144.349 8.57341 0
    endloop
  endfacet
  facet normal 0 0 -1
    outer loop
      vertex 184.11 0 0
      vertex 171.835 24.07 0
      vertex 184.11 50.14 0
    endloop
  endfacet
  facet normal 0 0 -1
    outer loop
      vertex 171.835 38.14 0
      vertex 184.11 50.14 0
      vertex 171.835 24.07 0
    endloop
  endfacet
  facet normal 0 0 -1
    outer loop
      vertex 170.799 39.5666 0
      vertex 184.11 50.14 0
      vertex 171.835 38.14 0
    endloop
  endfacet
  facet normal 0 0 -1
    outer loop
      vertex 169.121 39.0217 0
      vertex 184.11 50.14 0
      vertex 170.799 39.5666 0
    endloop
  endfacet
  facet normal 0 0 -1
    outer loop
      vertex 145.385 38.14 0
      vertex 169.121 37.2583 0
      vertex 145.385 24.07 0
    endloop
  endfacet
  facet normal 0 0 -1
    outer loop
      vertex 169.121 37.2583 0
      vertex 145.385 38.14 0
      vertex 169.121 39.0217 0
    endloop
  endfacet
  facet normal 0 0 -1
    outer loop
      vertex 144.349 39.5666 0
      vertex 169.121 39.0217 0
      vertex 145.385 38.14 0
    endloop
  endfacet
  facet normal 0 0 -1
    outer loop
      vertex 132.11 50.14 0
      vertex 169.121 39.0217 0
      vertex 144.349 39.5666 0
    endloop
  endfacet
  facet normal 0 0 -1
    outer loop
      vertex 169.121 39.0217 0
      vertex 132.11 50.14 0
      vertex 184.11 50.14 0
    endloop
  endfacet
  facet normal 0 0 -1
    outer loop
      vertex 142.671 39.0217 0
      vertex 132.11 50.14 0
      vertex 144.349 39.5666 0
    endloop
  endfacet
  facet normal 0 0 -1
    outer loop
      vertex 142.671 37.2583 0
      vertex 132.11 50.14 0
      vertex 142.671 39.0217 0
    endloop
  endfacet
  facet normal -0.809019 0.587783 0
    outer loop
      vertex 144.349 8.57341 0
      vertex 145.385 10 4.5
      vertex 145.385 10 0
    endloop
  endfacet
  facet normal -0.809019 0.587783 0
    outer loop
      vertex 145.385 10 4.5
      vertex 144.349 8.57341 0
      vertex 144.349 8.57341 4.5
    endloop
  endfacet
  facet normal -0.809014 -0.587789 0
    outer loop
      vertex 171.835 10 0
      vertex 170.799 11.4266 4.5
      vertex 170.799 11.4266 0
    endloop
  endfacet
  facet normal -0.809014 -0.587789 0
    outer loop
      vertex 170.799 11.4266 4.5
      vertex 171.835 10 0
      vertex 171.835 10 4.5
    endloop
  endfacet
  facet normal 1 -0 0
    outer loop
      vertex 169.121 9.11832 4.5
      vertex 169.121 10.8817 0
      vertex 169.121 10.8817 4.5
    endloop
  endfacet
  facet normal 1 0 0
    outer loop
      vertex 169.121 10.8817 0
      vertex 169.121 9.11832 4.5
      vertex 169.121 9.11832 0
    endloop
  endfacet
  facet normal 0.309017 -0.951056 0
    outer loop
      vertex 169.121 10.8817 0
      vertex 170.799 11.4266 4.5
      vertex 169.121 10.8817 4.5
    endloop
  endfacet
  facet normal 0.309017 -0.951056 0
    outer loop
      vertex 170.799 11.4266 4.5
      vertex 169.121 10.8817 0
      vertex 170.799 11.4266 0
    endloop
  endfacet
  facet normal 0.309017 0.951056 -0
    outer loop
      vertex 170.799 8.57341 0
      vertex 169.121 9.11832 4.5
      vertex 170.799 8.57341 4.5
    endloop
  endfacet
  facet normal 0.309017 0.951056 0
    outer loop
      vertex 169.121 9.11832 4.5
      vertex 170.799 8.57341 0
      vertex 169.121 9.11832 0
    endloop
  endfacet
  facet normal -0.809015 0.587789 0
    outer loop
      vertex 170.799 8.57341 0
      vertex 171.835 10 4.5
      vertex 171.835 10 0
    endloop
  endfacet
  facet normal -0.809015 0.587789 0
    outer loop
      vertex 171.835 10 4.5
      vertex 170.799 8.57341 0
      vertex 170.799 8.57341 4.5
    endloop
  endfacet
  facet normal -0.809019 -0.587783 0
    outer loop
      vertex 145.385 24.07 0
      vertex 144.349 25.4966 4.5
      vertex 144.349 25.4966 0
    endloop
  endfacet
  facet normal -0.809019 -0.587783 0
    outer loop
      vertex 144.349 25.4966 4.5
      vertex 145.385 24.07 0
      vertex 145.385 24.07 4.5
    endloop
  endfacet
  facet normal 1 -0 0
    outer loop
      vertex 142.671 23.1883 4.5
      vertex 142.671 24.9517 0
      vertex 142.671 24.9517 4.5
    endloop
  endfacet
  facet normal 1 0 0
    outer loop
      vertex 142.671 24.9517 0
      vertex 142.671 23.1883 4.5
      vertex 142.671 23.1883 0
    endloop
  endfacet
  facet normal 0.309017 -0.951056 0
    outer loop
      vertex 142.671 24.9517 0
      vertex 144.349 25.4966 4.5
      vertex 142.671 24.9517 4.5
    endloop
  endfacet
  facet normal 0.309017 -0.951056 0
    outer loop
      vertex 144.349 25.4966 4.5
      vertex 142.671 24.9517 0
      vertex 144.349 25.4966 0
    endloop
  endfacet
  facet normal 0.309018 0.951056 -0
    outer loop
      vertex 144.349 22.6434 0
      vertex 142.671 23.1883 4.5
      vertex 144.349 22.6434 4.5
    endloop
  endfacet
  facet normal 0.309018 0.951056 0
    outer loop
      vertex 142.671 23.1883 4.5
      vertex 144.349 22.6434 0
      vertex 142.671 23.1883 0
    endloop
  endfacet
  facet normal -0.809019 0.587783 0
    outer loop
      vertex 144.349 22.6434 0
      vertex 145.385 24.07 4.5
      vertex 145.385 24.07 0
    endloop
  endfacet
  facet normal -0.809019 0.587783 0
    outer loop
      vertex 145.385 24.07 4.5
      vertex 144.349 22.6434 0
      vertex 144.349 22.6434 4.5
    endloop
  endfacet
  facet normal -0.809014 -0.587789 0
    outer loop
      vertex 171.835 24.07 0
      vertex 170.799 25.4966 4.5
      vertex 170.799 25.4966 0
    endloop
  endfacet
  facet normal -0.809014 -0.587789 0
    outer loop
      vertex 170.799 25.4966 4.5
      vertex 171.835 24.07 0
      vertex 171.835 24.07 4.5
    endloop
  endfacet
  facet normal 1 -0 0
    outer loop
      vertex 169.121 23.1883 4.5
      vertex 169.121 24.9517 0
      vertex 169.121 24.9517 4.5
    endloop
  endfacet
  facet normal 1 0 0
    outer loop
      vertex 169.121 24.9517 0
      vertex 169.121 23.1883 4.5
      vertex 169.121 23.1883 0
    endloop
  endfacet
  facet normal 0.309017 -0.951056 0
    outer loop
      vertex 169.121 24.9517 0
      vertex 170.799 25.4966 4.5
      vertex 169.121 24.9517 4.5
    endloop
  endfacet
  facet normal 0.309017 -0.951056 0
    outer loop
      vertex 170.799 25.4966 4.5
      vertex 169.121 24.9517 0
      vertex 170.799 25.4966 0
    endloop
  endfacet
  facet normal 0.309018 0.951056 -0
    outer loop
      vertex 170.799 22.6434 0
      vertex 169.121 23.1883 4.5
      vertex 170.799 22.6434 4.5
    endloop
  endfacet
  facet normal 0.309018 0.951056 0
    outer loop
      vertex 169.121 23.1883 4.5
      vertex 170.799 22.6434 0
      vertex 169.121 23.1883 0
    endloop
  endfacet
  facet normal -0.809015 0.587788 0
    outer loop
      vertex 170.799 22.6434 0
      vertex 171.835 24.07 4.5
      vertex 171.835 24.07 0
    endloop
  endfacet
  facet normal -0.809015 0.587788 0
    outer loop
      vertex 171.835 24.07 4.5
      vertex 170.799 22.6434 0
      vertex 170.799 22.6434 4.5
    endloop
  endfacet
  facet normal -0.809019 -0.587783 0
    outer loop
      vertex 145.385 38.14 0
      vertex 144.349 39.5666 4.5
      vertex 144.349 39.5666 0
    endloop
  endfacet
  facet normal -0.809019 -0.587783 0
    outer loop
      vertex 144.349 39.5666 4.5
      vertex 145.385 38.14 0
      vertex 145.385 38.14 4.5
    endloop
  endfacet
  facet normal 1 -0 0
    outer loop
      vertex 142.671 37.2583 4.5
      vertex 142.671 39.0217 0
      vertex 142.671 39.0217 4.5
    endloop
  endfacet
  facet normal 1 0 0
    outer loop
      vertex 142.671 39.0217 0
      vertex 142.671 37.2583 4.5
      vertex 142.671 37.2583 0
    endloop
  endfacet
  facet normal 0.309019 -0.951056 0
    outer loop
      vertex 142.671 39.0217 0
      vertex 144.349 39.5666 4.5
      vertex 142.671 39.0217 4.5
    endloop
  endfacet
  facet normal 0.309019 -0.951056 0
    outer loop
      vertex 144.349 39.5666 4.5
      vertex 142.671 39.0217 0
      vertex 144.349 39.5666 0
    endloop
  endfacet
  facet normal 0.309017 0.951056 -0
    outer loop
      vertex 144.349 36.7134 0
      vertex 142.671 37.2583 4.5
      vertex 144.349 36.7134 4.5
    endloop
  endfacet
  facet normal 0.309017 0.951056 0
    outer loop
      vertex 142.671 37.2583 4.5
      vertex 144.349 36.7134 0
      vertex 142.671 37.2583 0
    endloop
  endfacet
  facet normal -0.809018 0.587784 0
    outer loop
      vertex 144.349 36.7134 0
      vertex 145.385 38.14 4.5
      vertex 145.385 38.14 0
    endloop
  endfacet
  facet normal -0.809018 0.587784 0
    outer loop
      vertex 145.385 38.14 4.5
      vertex 144.349 36.7134 0
      vertex 144.349 36.7134 4.5
    endloop
  endfacet
  facet normal -0.809015 -0.587788 0
    outer loop
      vertex 171.835 38.14 0
      vertex 170.799 39.5666 4.5
      vertex 170.799 39.5666 0
    endloop
  endfacet
  facet normal -0.809015 -0.587788 0
    outer loop
      vertex 170.799 39.5666 4.5
      vertex 171.835 38.14 0
      vertex 171.835 38.14 4.5
    endloop
  endfacet
  facet normal 1 -0 0
    outer loop
      vertex 169.121 37.2583 4.5
      vertex 169.121 39.0217 0
      vertex 169.121 39.0217 4.5
    endloop
  endfacet
  facet normal 1 0 0
    outer loop
      vertex 169.121 39.0217 0
      vertex 169.121 37.2583 4.5
      vertex 169.121 37.2583 0
    endloop
  endfacet
  facet normal 0.309019 -0.951056 0
    outer loop
      vertex 169.121 39.0217 0
      vertex 170.799 39.5666 4.5
      vertex 169.121 39.0217 4.5
    endloop
  endfacet
  facet normal 0.309019 -0.951056 0
    outer loop
      vertex 170.799 39.5666 4.5
      vertex 169.121 39.0217 0
      vertex 170.799 39.5666 0
    endloop
  endfacet
  facet normal 0.309017 0.951056 -0
    outer loop
      vertex 170.799 36.7134 0
      vertex 169.121 37.2583 4.5
      vertex 170.799 36.7134 4.5
    endloop
  endfacet
  facet normal 0.309017 0.951056 0
    outer loop
      vertex 169.121 37.2583 4.5
      vertex 170.799 36.7134 0
      vertex 169.121 37.2583 0
    endloop
  endfacet
  facet normal -0.809014 0.587789 0
    outer loop
      vertex 170.799 36.7134 0
      vertex 171.835 38.14 4.5
      vertex 171.835 38.14 0
    endloop
  endfacet
  facet normal -0.809014 0.587789 0
    outer loop
      vertex 171.835 38.14 4.5
      vertex 170.799 36.7134 0
      vertex 170.799 36.7134 4.5
    endloop
  endfacet
  facet normal 1 -0 0
    outer loop
      vertex 184.11 0 15
      vertex 184.11 50.14 0
      vertex 184.11 50.14 15
    endloop
  endfacet
  facet normal 1 0 0
    outer loop
      vertex 184.11 50.14 0
      vertex 184.11 0 15
      vertex 184.11 0 0
    endloop
  endfacet
  facet normal 0 1 -0
    outer loop
      vertex 184.11 50.14 0
      vertex 132.11 50.14 15
      vertex 184.11 50.14 15
    endloop
  endfacet
  facet normal 0 1 0
    outer loop
      vertex 132.11 50.14 15
      vertex 184.11 50.14 0
      vertex 132.11 50.14 0
    endloop
  endfacet
endsolid OpenSCAD_Model
